<svg width="108" height="27" viewBox="0 0 108 27" fill="none" xmlns="http://www.w3.org/2000/svg">
<path fill-rule="evenodd" clip-rule="evenodd" d="M89.3897 2.08964C89.3897 0.901349 88.3934 0 87.0197 0C85.6153 0 84.6224 0.840584 84.6224 2.08964C84.6224 3.33871 85.5269 4.24005 87.0197 4.24005C88.3968 4.24005 89.3897 3.33871 89.3897 2.08964ZM89.1245 6.09677H84.8843V21.2003H89.1245V6.09677ZM39.2214 6.09681H34.9811V27H39.2214V20.6703C39.6872 21.1936 41.0337 21.4265 42.4959 21.4265C47.1204 21.4265 50.1025 17.8819 50.1025 13.4123C50.1025 8.94264 47.236 5.7761 42.6149 5.7761C41.4452 5.7761 40.0102 6.1542 39.2214 6.88V6.09681ZM39.2214 16.2311V11.4138C39.7756 10.3943 40.7413 9.69883 42.1457 9.69883C44.3661 9.69883 45.7126 11.066 45.7126 13.7363C45.7126 16.0285 44.2811 17.5105 41.911 17.5105C40.7141 17.5105 39.6906 16.9265 39.2214 16.2311ZM68.0215 13.6216C68.0215 9.0608 64.6008 5.77948 59.7451 5.77948C54.8894 5.77948 51.5265 9.09118 51.5265 13.6216C51.5265 18.1519 54.8894 21.4332 59.7451 21.4332C64.6008 21.4332 68.0215 18.1823 68.0215 13.6216ZM63.6351 13.6182C63.6351 16.0589 62.0573 17.5105 59.7451 17.5105C57.4635 17.5105 55.9129 15.826 55.9129 13.6182C55.9129 11.1234 57.6097 9.69883 59.7451 9.69883C61.8805 9.69883 63.6351 11.1774 63.6351 13.6182ZM69.634 10.455C69.634 7.5518 72.0619 5.77948 76.1865 5.77948C79.0836 5.77948 81.5386 7.11631 82.5043 8.51054L79.6072 11.2686C78.6143 10.2525 77.2372 9.69883 75.3364 9.69883C74.5475 9.69883 74.0204 9.87437 74.0204 10.4246C74.0204 10.857 74.9655 11.1019 76.2302 11.4296C78.7872 12.0922 82.6505 13.0933 82.6505 16.6666C82.6505 19.9783 79.6684 21.4299 76.2137 21.4299C72.5005 21.4299 70.0114 19.7453 68.9301 17.7705L72.2931 15.5053C73.1126 16.5518 74.8093 17.5105 76.6795 17.5105C77.703 17.5105 78.2607 17.2506 78.2607 16.6969C78.2607 16.1791 77.2071 15.8884 75.8361 15.5101C73.2835 14.8057 69.6306 13.7978 69.6306 10.455H69.634ZM90.7469 6.09675H93.644V2.58588H97.8842V6.10013H102.536V10.0195H97.8842V14.9279C97.8842 16.7577 98.2923 17.4531 99.4348 17.4531C100.428 17.4531 101.22 17.1054 102.039 16.4673L103.794 19.4583C102.74 20.5622 101.104 21.3758 99.0267 21.3758C95.8372 21.3758 93.644 19.6609 93.644 16.177V10.0195H90.7469V6.10013V6.09675ZM108 7.15001C108 6.19127 107.204 5.40807 106.232 5.40807C105.235 5.40807 104.44 6.17777 104.44 7.15001C104.44 8.12225 105.259 8.89869 106.232 8.89869C107.204 8.89869 108 8.10875 108 7.15001ZM107.687 7.15676C107.687 7.9197 107.027 8.59487 106.225 8.59487C105.412 8.59487 104.756 7.9332 104.756 7.15676C104.756 6.38032 105.443 5.71865 106.225 5.71865C107.007 5.71865 107.687 6.34993 107.687 7.15676ZM105.463 8.16276V8.16614L105.46 8.16276H105.463ZM105.463 8.16276H105.905V7.48084H106.191L106.636 8.16276H107.157L106.602 7.34243C106.851 7.25466 107.027 7.03861 107.027 6.74828C107.027 6.40057 106.83 6.09675 106.181 6.09675H105.463V8.16276ZM105.885 6.47821H106.136C106.377 6.47821 106.521 6.55248 106.521 6.79216C106.521 6.98121 106.341 7.08924 106.171 7.08924H105.885V6.47821Z" fill="#17212B"/>
<path d="M14.8517 13.5418L20.4278 11.1577L19.1846 10.6064L13.5848 13.0007L12.318 13.5418L13.5848 14.0829L19.2452 16.5009L20.4885 15.9496L14.8517 13.5418Z" fill="#17212B"/>
<path d="M26.176 19.4637V24.7866L14.7137 19.599L13.494 20.1401L27.17 26.3253V18.8043L21.7387 16.4844L20.4954 17.0356L26.176 19.4637Z" fill="#17212B"/>
<path d="M27.1692 1.0127L13.5842 7.03562L14.8106 7.58008L26.1753 2.54125V7.62066L20.434 10.0724L21.6773 10.6237L27.1692 8.27672V1.0127Z" fill="#17212B"/>
<path d="M6.66441 15.9567L2.77962 14.2185V12.9165L6.7419 11.158L7.98517 10.6068L13.5849 8.12454L12.3585 7.58008L6.73516 10.0724L5.49189 10.6237L1.78568 12.2672V14.8678L5.42114 16.4876L6.65093 17.0456L12.2776 19.5887L13.4973 19.051L7.8942 16.5147L6.66441 15.9567Z" fill="#17212B"/>
<path d="M6.66443 15.9566L7.89422 16.5146L13.5849 14.0831L12.3181 13.542L6.66443 15.9566Z" fill="#17212B"/>
<path d="M7.9853 10.6064L6.74203 11.1577L12.3182 13.5418L13.5851 13.0007L7.9853 10.6064Z" fill="#17212B"/>
<path d="M21.678 10.6237L20.4347 10.0724L14.8114 7.58008L13.585 7.03562L0 1.0127V8.27672L5.49194 10.6237L6.73521 10.0724L0.990571 7.62066V2.54125L12.3586 7.58008L13.585 8.12454L19.1847 10.6068L20.428 11.158L24.3903 12.9165V14.2185L20.4887 15.9499L19.2454 16.5012L13.4974 19.051L12.2777 19.5887L0.990571 24.5937V19.4636L6.65098 17.0456L5.42119 16.4876L0 18.8042V26.1223L13.494 20.1399L14.7137 19.5989L20.4954 17.0355L21.7387 16.4843L25.3809 14.8678V12.2672L21.678 10.6237Z" fill="#17212B"/>
</svg>
