<svg version="1.1" xmlns="http://www.w3.org/2000/svg" width="300px" height="300px" viewBox="0 0 312 312"  preserveAspectRatio="xMinYMin meet"><rect width="100%" height="100%" fill="#ffffff" cx="0" cy="0"/><path d="M8,8l8,0 0,8 -8,0 0,-8z M16,8l8,0 0,8 -8,0 0,-8z M24,8l8,0 0,8 -8,0 0,-8z M32,8l8,0 0,8 -8,0 0,-8z M40,8l8,0 0,8 -8,0 0,-8z M48,8l8,0 0,8 -8,0 0,-8z M56,8l8,0 0,8 -8,0 0,-8z M80,8l8,0 0,8 -8,0 0,-8z M88,8l8,0 0,8 -8,0 0,-8z M112,8l8,0 0,8 -8,0 0,-8z M152,8l8,0 0,8 -8,0 0,-8z M168,8l8,0 0,8 -8,0 0,-8z M176,8l8,0 0,8 -8,0 0,-8z M184,8l8,0 0,8 -8,0 0,-8z M216,8l8,0 0,8 -8,0 0,-8z M248,8l8,0 0,8 -8,0 0,-8z M256,8l8,0 0,8 -8,0 0,-8z M264,8l8,0 0,8 -8,0 0,-8z M272,8l8,0 0,8 -8,0 0,-8z M280,8l8,0 0,8 -8,0 0,-8z M288,8l8,0 0,8 -8,0 0,-8z M296,8l8,0 0,8 -8,0 0,-8z M8,16l8,0 0,8 -8,0 0,-8z M56,16l8,0 0,8 -8,0 0,-8z M80,16l8,0 0,8 -8,0 0,-8z M104,16l8,0 0,8 -8,0 0,-8z M112,16l8,0 0,8 -8,0 0,-8z M144,16l8,0 0,8 -8,0 0,-8z M200,16l8,0 0,8 -8,0 0,-8z M216,16l8,0 0,8 -8,0 0,-8z M232,16l8,0 0,8 -8,0 0,-8z M248,16l8,0 0,8 -8,0 0,-8z M296,16l8,0 0,8 -8,0 0,-8z M8,24l8,0 0,8 -8,0 0,-8z M24,24l8,0 0,8 -8,0 0,-8z M32,24l8,0 0,8 -8,0 0,-8z M40,24l8,0 0,8 -8,0 0,-8z M56,24l8,0 0,8 -8,0 0,-8z M80,24l8,0 0,8 -8,0 0,-8z M96,24l8,0 0,8 -8,0 0,-8z M120,24l8,0 0,8 -8,0 0,-8z M160,24l8,0 0,8 -8,0 0,-8z M176,24l8,0 0,8 -8,0 0,-8z M184,24l8,0 0,8 -8,0 0,-8z M216,24l8,0 0,8 -8,0 0,-8z M232,24l8,0 0,8 -8,0 0,-8z M248,24l8,0 0,8 -8,0 0,-8z M264,24l8,0 0,8 -8,0 0,-8z M272,24l8,0 0,8 -8,0 0,-8z M280,24l8,0 0,8 -8,0 0,-8z M296,24l8,0 0,8 -8,0 0,-8z M8,32l8,0 0,8 -8,0 0,-8z M24,32l8,0 0,8 -8,0 0,-8z M32,32l8,0 0,8 -8,0 0,-8z M40,32l8,0 0,8 -8,0 0,-8z M56,32l8,0 0,8 -8,0 0,-8z M72,32l8,0 0,8 -8,0 0,-8z M88,32l8,0 0,8 -8,0 0,-8z M96,32l8,0 0,8 -8,0 0,-8z M104,32l8,0 0,8 -8,0 0,-8z M112,32l8,0 0,8 -8,0 0,-8z M136,32l8,0 0,8 -8,0 0,-8z M144,32l8,0 0,8 -8,0 0,-8z M168,32l8,0 0,8 -8,0 0,-8z M176,32l8,0 0,8 -8,0 0,-8z M200,32l8,0 0,8 -8,0 0,-8z M208,32l8,0 0,8 -8,0 0,-8z M216,32l8,0 0,8 -8,0 0,-8z M224,32l8,0 0,8 -8,0 0,-8z M232,32l8,0 0,8 -8,0 0,-8z M248,32l8,0 0,8 -8,0 0,-8z M264,32l8,0 0,8 -8,0 0,-8z M272,32l8,0 0,8 -8,0 0,-8z M280,32l8,0 0,8 -8,0 0,-8z M296,32l8,0 0,8 -8,0 0,-8z M8,40l8,0 0,8 -8,0 0,-8z M24,40l8,0 0,8 -8,0 0,-8z M32,40l8,0 0,8 -8,0 0,-8z M40,40l8,0 0,8 -8,0 0,-8z M56,40l8,0 0,8 -8,0 0,-8z M72,40l8,0 0,8 -8,0 0,-8z M96,40l8,0 0,8 -8,0 0,-8z M112,40l8,0 0,8 -8,0 0,-8z M136,40l8,0 0,8 -8,0 0,-8z M144,40l8,0 0,8 -8,0 0,-8z M152,40l8,0 0,8 -8,0 0,-8z M160,40l8,0 0,8 -8,0 0,-8z M168,40l8,0 0,8 -8,0 0,-8z M176,40l8,0 0,8 -8,0 0,-8z M184,40l8,0 0,8 -8,0 0,-8z M208,40l8,0 0,8 -8,0 0,-8z M232,40l8,0 0,8 -8,0 0,-8z M248,40l8,0 0,8 -8,0 0,-8z M264,40l8,0 0,8 -8,0 0,-8z M272,40l8,0 0,8 -8,0 0,-8z M280,40l8,0 0,8 -8,0 0,-8z M296,40l8,0 0,8 -8,0 0,-8z M8,48l8,0 0,8 -8,0 0,-8z M56,48l8,0 0,8 -8,0 0,-8z M80,48l8,0 0,8 -8,0 0,-8z M88,48l8,0 0,8 -8,0 0,-8z M136,48l8,0 0,8 -8,0 0,-8z M168,48l8,0 0,8 -8,0 0,-8z M184,48l8,0 0,8 -8,0 0,-8z M208,48l8,0 0,8 -8,0 0,-8z M216,48l8,0 0,8 -8,0 0,-8z M232,48l8,0 0,8 -8,0 0,-8z M248,48l8,0 0,8 -8,0 0,-8z M296,48l8,0 0,8 -8,0 0,-8z M8,56l8,0 0,8 -8,0 0,-8z M16,56l8,0 0,8 -8,0 0,-8z M24,56l8,0 0,8 -8,0 0,-8z M32,56l8,0 0,8 -8,0 0,-8z M40,56l8,0 0,8 -8,0 0,-8z M48,56l8,0 0,8 -8,0 0,-8z M56,56l8,0 0,8 -8,0 0,-8z M72,56l8,0 0,8 -8,0 0,-8z M88,56l8,0 0,8 -8,0 0,-8z M104,56l8,0 0,8 -8,0 0,-8z M120,56l8,0 0,8 -8,0 0,-8z M136,56l8,0 0,8 -8,0 0,-8z M152,56l8,0 0,8 -8,0 0,-8z M168,56l8,0 0,8 -8,0 0,-8z M184,56l8,0 0,8 -8,0 0,-8z M200,56l8,0 0,8 -8,0 0,-8z M216,56l8,0 0,8 -8,0 0,-8z M232,56l8,0 0,8 -8,0 0,-8z M248,56l8,0 0,8 -8,0 0,-8z M256,56l8,0 0,8 -8,0 0,-8z M264,56l8,0 0,8 -8,0 0,-8z M272,56l8,0 0,8 -8,0 0,-8z M280,56l8,0 0,8 -8,0 0,-8z M288,56l8,0 0,8 -8,0 0,-8z M296,56l8,0 0,8 -8,0 0,-8z M80,64l8,0 0,8 -8,0 0,-8z M104,64l8,0 0,8 -8,0 0,-8z M120,64l8,0 0,8 -8,0 0,-8z M136,64l8,0 0,8 -8,0 0,-8z M160,64l8,0 0,8 -8,0 0,-8z M168,64l8,0 0,8 -8,0 0,-8z M192,64l8,0 0,8 -8,0 0,-8z M216,64l8,0 0,8 -8,0 0,-8z M224,64l8,0 0,8 -8,0 0,-8z M8,72l8,0 0,8 -8,0 0,-8z M16,72l8,0 0,8 -8,0 0,-8z M48,72l8,0 0,8 -8,0 0,-8z M56,72l8,0 0,8 -8,0 0,-8z M64,72l8,0 0,8 -8,0 0,-8z M80,72l8,0 0,8 -8,0 0,-8z M88,72l8,0 0,8 -8,0 0,-8z M96,72l8,0 0,8 -8,0 0,-8z M112,72l8,0 0,8 -8,0 0,-8z M120,72l8,0 0,8 -8,0 0,-8z M128,72l8,0 0,8 -8,0 0,-8z M144,72l8,0 0,8 -8,0 0,-8z M160,72l8,0 0,8 -8,0 0,-8z M184,72l8,0 0,8 -8,0 0,-8z M192,72l8,0 0,8 -8,0 0,-8z M200,72l8,0 0,8 -8,0 0,-8z M208,72l8,0 0,8 -8,0 0,-8z M216,72l8,0 0,8 -8,0 0,-8z M224,72l8,0 0,8 -8,0 0,-8z M264,72l8,0 0,8 -8,0 0,-8z M272,72l8,0 0,8 -8,0 0,-8z M32,80l8,0 0,8 -8,0 0,-8z M40,80l8,0 0,8 -8,0 0,-8z M64,80l8,0 0,8 -8,0 0,-8z M72,80l8,0 0,8 -8,0 0,-8z M80,80l8,0 0,8 -8,0 0,-8z M88,80l8,0 0,8 -8,0 0,-8z M96,80l8,0 0,8 -8,0 0,-8z M128,80l8,0 0,8 -8,0 0,-8z M152,80l8,0 0,8 -8,0 0,-8z M160,80l8,0 0,8 -8,0 0,-8z M184,80l8,0 0,8 -8,0 0,-8z M192,80l8,0 0,8 -8,0 0,-8z M200,80l8,0 0,8 -8,0 0,-8z M216,80l8,0 0,8 -8,0 0,-8z M224,80l8,0 0,8 -8,0 0,-8z M256,80l8,0 0,8 -8,0 0,-8z M264,80l8,0 0,8 -8,0 0,-8z M288,80l8,0 0,8 -8,0 0,-8z M8,88l8,0 0,8 -8,0 0,-8z M24,88l8,0 0,8 -8,0 0,-8z M32,88l8,0 0,8 -8,0 0,-8z M48,88l8,0 0,8 -8,0 0,-8z M56,88l8,0 0,8 -8,0 0,-8z M80,88l8,0 0,8 -8,0 0,-8z M104,88l8,0 0,8 -8,0 0,-8z M120,88l8,0 0,8 -8,0 0,-8z M128,88l8,0 0,8 -8,0 0,-8z M136,88l8,0 0,8 -8,0 0,-8z M152,88l8,0 0,8 -8,0 0,-8z M176,88l8,0 0,8 -8,0 0,-8z M200,88l8,0 0,8 -8,0 0,-8z M208,88l8,0 0,8 -8,0 0,-8z M216,88l8,0 0,8 -8,0 0,-8z M224,88l8,0 0,8 -8,0 0,-8z M248,88l8,0 0,8 -8,0 0,-8z M256,88l8,0 0,8 -8,0 0,-8z M272,88l8,0 0,8 -8,0 0,-8z M280,88l8,0 0,8 -8,0 0,-8z M296,88l8,0 0,8 -8,0 0,-8z M24,96l8,0 0,8 -8,0 0,-8z M40,96l8,0 0,8 -8,0 0,-8z M80,96l8,0 0,8 -8,0 0,-8z M88,96l8,0 0,8 -8,0 0,-8z M104,96l8,0 0,8 -8,0 0,-8z M128,96l8,0 0,8 -8,0 0,-8z M136,96l8,0 0,8 -8,0 0,-8z M168,96l8,0 0,8 -8,0 0,-8z M184,96l8,0 0,8 -8,0 0,-8z M200,96l8,0 0,8 -8,0 0,-8z M216,96l8,0 0,8 -8,0 0,-8z M224,96l8,0 0,8 -8,0 0,-8z M232,96l8,0 0,8 -8,0 0,-8z M240,96l8,0 0,8 -8,0 0,-8z M248,96l8,0 0,8 -8,0 0,-8z M256,96l8,0 0,8 -8,0 0,-8z M288,96l8,0 0,8 -8,0 0,-8z M8,104l8,0 0,8 -8,0 0,-8z M24,104l8,0 0,8 -8,0 0,-8z M48,104l8,0 0,8 -8,0 0,-8z M56,104l8,0 0,8 -8,0 0,-8z M88,104l8,0 0,8 -8,0 0,-8z M96,104l8,0 0,8 -8,0 0,-8z M128,104l8,0 0,8 -8,0 0,-8z M168,104l8,0 0,8 -8,0 0,-8z M176,104l8,0 0,8 -8,0 0,-8z M200,104l8,0 0,8 -8,0 0,-8z M232,104l8,0 0,8 -8,0 0,-8z M248,104l8,0 0,8 -8,0 0,-8z M256,104l8,0 0,8 -8,0 0,-8z M272,104l8,0 0,8 -8,0 0,-8z M288,104l8,0 0,8 -8,0 0,-8z M296,104l8,0 0,8 -8,0 0,-8z M16,112l8,0 0,8 -8,0 0,-8z M24,112l8,0 0,8 -8,0 0,-8z M40,112l8,0 0,8 -8,0 0,-8z M48,112l8,0 0,8 -8,0 0,-8z M88,112l8,0 0,8 -8,0 0,-8z M96,112l8,0 0,8 -8,0 0,-8z M128,112l8,0 0,8 -8,0 0,-8z M136,112l8,0 0,8 -8,0 0,-8z M160,112l8,0 0,8 -8,0 0,-8z M168,112l8,0 0,8 -8,0 0,-8z M184,112l8,0 0,8 -8,0 0,-8z M192,112l8,0 0,8 -8,0 0,-8z M208,112l8,0 0,8 -8,0 0,-8z M224,112l8,0 0,8 -8,0 0,-8z M240,112l8,0 0,8 -8,0 0,-8z M256,112l8,0 0,8 -8,0 0,-8z M272,112l8,0 0,8 -8,0 0,-8z M280,112l8,0 0,8 -8,0 0,-8z M288,112l8,0 0,8 -8,0 0,-8z M40,120l8,0 0,8 -8,0 0,-8z M48,120l8,0 0,8 -8,0 0,-8z M56,120l8,0 0,8 -8,0 0,-8z M64,120l8,0 0,8 -8,0 0,-8z M72,120l8,0 0,8 -8,0 0,-8z M88,120l8,0 0,8 -8,0 0,-8z M120,120l8,0 0,8 -8,0 0,-8z M128,120l8,0 0,8 -8,0 0,-8z M136,120l8,0 0,8 -8,0 0,-8z M144,120l8,0 0,8 -8,0 0,-8z M152,120l8,0 0,8 -8,0 0,-8z M184,120l8,0 0,8 -8,0 0,-8z M224,120l8,0 0,8 -8,0 0,-8z M232,120l8,0 0,8 -8,0 0,-8z M248,120l8,0 0,8 -8,0 0,-8z M256,120l8,0 0,8 -8,0 0,-8z M264,120l8,0 0,8 -8,0 0,-8z M280,120l8,0 0,8 -8,0 0,-8z M288,120l8,0 0,8 -8,0 0,-8z M296,120l8,0 0,8 -8,0 0,-8z M8,128l8,0 0,8 -8,0 0,-8z M24,128l8,0 0,8 -8,0 0,-8z M48,128l8,0 0,8 -8,0 0,-8z M64,128l8,0 0,8 -8,0 0,-8z M72,128l8,0 0,8 -8,0 0,-8z M88,128l8,0 0,8 -8,0 0,-8z M104,128l8,0 0,8 -8,0 0,-8z M160,128l8,0 0,8 -8,0 0,-8z M168,128l8,0 0,8 -8,0 0,-8z M192,128l8,0 0,8 -8,0 0,-8z M200,128l8,0 0,8 -8,0 0,-8z M264,128l8,0 0,8 -8,0 0,-8z M280,128l8,0 0,8 -8,0 0,-8z M296,128l8,0 0,8 -8,0 0,-8z M8,136l8,0 0,8 -8,0 0,-8z M32,136l8,0 0,8 -8,0 0,-8z M48,136l8,0 0,8 -8,0 0,-8z M56,136l8,0 0,8 -8,0 0,-8z M80,136l8,0 0,8 -8,0 0,-8z M88,136l8,0 0,8 -8,0 0,-8z M96,136l8,0 0,8 -8,0 0,-8z M104,136l8,0 0,8 -8,0 0,-8z M112,136l8,0 0,8 -8,0 0,-8z M144,136l8,0 0,8 -8,0 0,-8z M184,136l8,0 0,8 -8,0 0,-8z M200,136l8,0 0,8 -8,0 0,-8z M208,136l8,0 0,8 -8,0 0,-8z M216,136l8,0 0,8 -8,0 0,-8z M224,136l8,0 0,8 -8,0 0,-8z M240,136l8,0 0,8 -8,0 0,-8z M248,136l8,0 0,8 -8,0 0,-8z M256,136l8,0 0,8 -8,0 0,-8z M264,136l8,0 0,8 -8,0 0,-8z M272,136l8,0 0,8 -8,0 0,-8z M280,136l8,0 0,8 -8,0 0,-8z M296,136l8,0 0,8 -8,0 0,-8z M16,144l8,0 0,8 -8,0 0,-8z M24,144l8,0 0,8 -8,0 0,-8z M32,144l8,0 0,8 -8,0 0,-8z M48,144l8,0 0,8 -8,0 0,-8z M96,144l8,0 0,8 -8,0 0,-8z M112,144l8,0 0,8 -8,0 0,-8z M128,144l8,0 0,8 -8,0 0,-8z M160,144l8,0 0,8 -8,0 0,-8z M168,144l8,0 0,8 -8,0 0,-8z M184,144l8,0 0,8 -8,0 0,-8z M192,144l8,0 0,8 -8,0 0,-8z M216,144l8,0 0,8 -8,0 0,-8z M224,144l8,0 0,8 -8,0 0,-8z M232,144l8,0 0,8 -8,0 0,-8z M256,144l8,0 0,8 -8,0 0,-8z M272,144l8,0 0,8 -8,0 0,-8z M280,144l8,0 0,8 -8,0 0,-8z M288,144l8,0 0,8 -8,0 0,-8z M16,152l8,0 0,8 -8,0 0,-8z M32,152l8,0 0,8 -8,0 0,-8z M56,152l8,0 0,8 -8,0 0,-8z M64,152l8,0 0,8 -8,0 0,-8z M72,152l8,0 0,8 -8,0 0,-8z M80,152l8,0 0,8 -8,0 0,-8z M88,152l8,0 0,8 -8,0 0,-8z M96,152l8,0 0,8 -8,0 0,-8z M104,152l8,0 0,8 -8,0 0,-8z M112,152l8,0 0,8 -8,0 0,-8z M128,152l8,0 0,8 -8,0 0,-8z M136,152l8,0 0,8 -8,0 0,-8z M144,152l8,0 0,8 -8,0 0,-8z M160,152l8,0 0,8 -8,0 0,-8z M184,152l8,0 0,8 -8,0 0,-8z M192,152l8,0 0,8 -8,0 0,-8z M200,152l8,0 0,8 -8,0 0,-8z M208,152l8,0 0,8 -8,0 0,-8z M224,152l8,0 0,8 -8,0 0,-8z M232,152l8,0 0,8 -8,0 0,-8z M240,152l8,0 0,8 -8,0 0,-8z M248,152l8,0 0,8 -8,0 0,-8z M264,152l8,0 0,8 -8,0 0,-8z M296,152l8,0 0,8 -8,0 0,-8z M32,160l8,0 0,8 -8,0 0,-8z M40,160l8,0 0,8 -8,0 0,-8z M64,160l8,0 0,8 -8,0 0,-8z M88,160l8,0 0,8 -8,0 0,-8z M96,160l8,0 0,8 -8,0 0,-8z M120,160l8,0 0,8 -8,0 0,-8z M128,160l8,0 0,8 -8,0 0,-8z M152,160l8,0 0,8 -8,0 0,-8z M160,160l8,0 0,8 -8,0 0,-8z M168,160l8,0 0,8 -8,0 0,-8z M192,160l8,0 0,8 -8,0 0,-8z M232,160l8,0 0,8 -8,0 0,-8z M240,160l8,0 0,8 -8,0 0,-8z M256,160l8,0 0,8 -8,0 0,-8z M272,160l8,0 0,8 -8,0 0,-8z M296,160l8,0 0,8 -8,0 0,-8z M48,168l8,0 0,8 -8,0 0,-8z M56,168l8,0 0,8 -8,0 0,-8z M80,168l8,0 0,8 -8,0 0,-8z M88,168l8,0 0,8 -8,0 0,-8z M96,168l8,0 0,8 -8,0 0,-8z M104,168l8,0 0,8 -8,0 0,-8z M112,168l8,0 0,8 -8,0 0,-8z M120,168l8,0 0,8 -8,0 0,-8z M128,168l8,0 0,8 -8,0 0,-8z M144,168l8,0 0,8 -8,0 0,-8z M160,168l8,0 0,8 -8,0 0,-8z M184,168l8,0 0,8 -8,0 0,-8z M192,168l8,0 0,8 -8,0 0,-8z M200,168l8,0 0,8 -8,0 0,-8z M208,168l8,0 0,8 -8,0 0,-8z M216,168l8,0 0,8 -8,0 0,-8z M240,168l8,0 0,8 -8,0 0,-8z M248,168l8,0 0,8 -8,0 0,-8z M264,168l8,0 0,8 -8,0 0,-8z M272,168l8,0 0,8 -8,0 0,-8z M280,168l8,0 0,8 -8,0 0,-8z M288,168l8,0 0,8 -8,0 0,-8z M296,168l8,0 0,8 -8,0 0,-8z M8,176l8,0 0,8 -8,0 0,-8z M24,176l8,0 0,8 -8,0 0,-8z M48,176l8,0 0,8 -8,0 0,-8z M72,176l8,0 0,8 -8,0 0,-8z M80,176l8,0 0,8 -8,0 0,-8z M96,176l8,0 0,8 -8,0 0,-8z M104,176l8,0 0,8 -8,0 0,-8z M120,176l8,0 0,8 -8,0 0,-8z M128,176l8,0 0,8 -8,0 0,-8z M152,176l8,0 0,8 -8,0 0,-8z M160,176l8,0 0,8 -8,0 0,-8z M168,176l8,0 0,8 -8,0 0,-8z M184,176l8,0 0,8 -8,0 0,-8z M192,176l8,0 0,8 -8,0 0,-8z M208,176l8,0 0,8 -8,0 0,-8z M216,176l8,0 0,8 -8,0 0,-8z M224,176l8,0 0,8 -8,0 0,-8z M256,176l8,0 0,8 -8,0 0,-8z M264,176l8,0 0,8 -8,0 0,-8z M280,176l8,0 0,8 -8,0 0,-8z M288,176l8,0 0,8 -8,0 0,-8z M8,184l8,0 0,8 -8,0 0,-8z M48,184l8,0 0,8 -8,0 0,-8z M56,184l8,0 0,8 -8,0 0,-8z M64,184l8,0 0,8 -8,0 0,-8z M72,184l8,0 0,8 -8,0 0,-8z M80,184l8,0 0,8 -8,0 0,-8z M104,184l8,0 0,8 -8,0 0,-8z M112,184l8,0 0,8 -8,0 0,-8z M128,184l8,0 0,8 -8,0 0,-8z M136,184l8,0 0,8 -8,0 0,-8z M176,184l8,0 0,8 -8,0 0,-8z M224,184l8,0 0,8 -8,0 0,-8z M232,184l8,0 0,8 -8,0 0,-8z M264,184l8,0 0,8 -8,0 0,-8z M280,184l8,0 0,8 -8,0 0,-8z M288,184l8,0 0,8 -8,0 0,-8z M296,184l8,0 0,8 -8,0 0,-8z M8,192l8,0 0,8 -8,0 0,-8z M16,192l8,0 0,8 -8,0 0,-8z M24,192l8,0 0,8 -8,0 0,-8z M40,192l8,0 0,8 -8,0 0,-8z M48,192l8,0 0,8 -8,0 0,-8z M64,192l8,0 0,8 -8,0 0,-8z M72,192l8,0 0,8 -8,0 0,-8z M80,192l8,0 0,8 -8,0 0,-8z M96,192l8,0 0,8 -8,0 0,-8z M120,192l8,0 0,8 -8,0 0,-8z M136,192l8,0 0,8 -8,0 0,-8z M160,192l8,0 0,8 -8,0 0,-8z M184,192l8,0 0,8 -8,0 0,-8z M224,192l8,0 0,8 -8,0 0,-8z M232,192l8,0 0,8 -8,0 0,-8z M248,192l8,0 0,8 -8,0 0,-8z M272,192l8,0 0,8 -8,0 0,-8z M296,192l8,0 0,8 -8,0 0,-8z M16,200l8,0 0,8 -8,0 0,-8z M48,200l8,0 0,8 -8,0 0,-8z M56,200l8,0 0,8 -8,0 0,-8z M72,200l8,0 0,8 -8,0 0,-8z M88,200l8,0 0,8 -8,0 0,-8z M104,200l8,0 0,8 -8,0 0,-8z M128,200l8,0 0,8 -8,0 0,-8z M192,200l8,0 0,8 -8,0 0,-8z M200,200l8,0 0,8 -8,0 0,-8z M224,200l8,0 0,8 -8,0 0,-8z M232,200l8,0 0,8 -8,0 0,-8z M240,200l8,0 0,8 -8,0 0,-8z M248,200l8,0 0,8 -8,0 0,-8z M272,200l8,0 0,8 -8,0 0,-8z M296,200l8,0 0,8 -8,0 0,-8z M8,208l8,0 0,8 -8,0 0,-8z M32,208l8,0 0,8 -8,0 0,-8z M40,208l8,0 0,8 -8,0 0,-8z M64,208l8,0 0,8 -8,0 0,-8z M72,208l8,0 0,8 -8,0 0,-8z M80,208l8,0 0,8 -8,0 0,-8z M96,208l8,0 0,8 -8,0 0,-8z M120,208l8,0 0,8 -8,0 0,-8z M128,208l8,0 0,8 -8,0 0,-8z M136,208l8,0 0,8 -8,0 0,-8z M160,208l8,0 0,8 -8,0 0,-8z M168,208l8,0 0,8 -8,0 0,-8z M176,208l8,0 0,8 -8,0 0,-8z M192,208l8,0 0,8 -8,0 0,-8z M216,208l8,0 0,8 -8,0 0,-8z M224,208l8,0 0,8 -8,0 0,-8z M232,208l8,0 0,8 -8,0 0,-8z M256,208l8,0 0,8 -8,0 0,-8z M272,208l8,0 0,8 -8,0 0,-8z M280,208l8,0 0,8 -8,0 0,-8z M288,208l8,0 0,8 -8,0 0,-8z M8,216l8,0 0,8 -8,0 0,-8z M32,216l8,0 0,8 -8,0 0,-8z M40,216l8,0 0,8 -8,0 0,-8z M48,216l8,0 0,8 -8,0 0,-8z M56,216l8,0 0,8 -8,0 0,-8z M80,216l8,0 0,8 -8,0 0,-8z M112,216l8,0 0,8 -8,0 0,-8z M128,216l8,0 0,8 -8,0 0,-8z M144,216l8,0 0,8 -8,0 0,-8z M152,216l8,0 0,8 -8,0 0,-8z M168,216l8,0 0,8 -8,0 0,-8z M184,216l8,0 0,8 -8,0 0,-8z M200,216l8,0 0,8 -8,0 0,-8z M216,216l8,0 0,8 -8,0 0,-8z M224,216l8,0 0,8 -8,0 0,-8z M232,216l8,0 0,8 -8,0 0,-8z M240,216l8,0 0,8 -8,0 0,-8z M264,216l8,0 0,8 -8,0 0,-8z M280,216l8,0 0,8 -8,0 0,-8z M288,216l8,0 0,8 -8,0 0,-8z M296,216l8,0 0,8 -8,0 0,-8z M8,224l8,0 0,8 -8,0 0,-8z M24,224l8,0 0,8 -8,0 0,-8z M32,224l8,0 0,8 -8,0 0,-8z M40,224l8,0 0,8 -8,0 0,-8z M48,224l8,0 0,8 -8,0 0,-8z M72,224l8,0 0,8 -8,0 0,-8z M88,224l8,0 0,8 -8,0 0,-8z M96,224l8,0 0,8 -8,0 0,-8z M120,224l8,0 0,8 -8,0 0,-8z M136,224l8,0 0,8 -8,0 0,-8z M152,224l8,0 0,8 -8,0 0,-8z M168,224l8,0 0,8 -8,0 0,-8z M184,224l8,0 0,8 -8,0 0,-8z M192,224l8,0 0,8 -8,0 0,-8z M200,224l8,0 0,8 -8,0 0,-8z M224,224l8,0 0,8 -8,0 0,-8z M256,224l8,0 0,8 -8,0 0,-8z M272,224l8,0 0,8 -8,0 0,-8z M280,224l8,0 0,8 -8,0 0,-8z M296,224l8,0 0,8 -8,0 0,-8z M8,232l8,0 0,8 -8,0 0,-8z M24,232l8,0 0,8 -8,0 0,-8z M40,232l8,0 0,8 -8,0 0,-8z M56,232l8,0 0,8 -8,0 0,-8z M64,232l8,0 0,8 -8,0 0,-8z M72,232l8,0 0,8 -8,0 0,-8z M80,232l8,0 0,8 -8,0 0,-8z M88,232l8,0 0,8 -8,0 0,-8z M96,232l8,0 0,8 -8,0 0,-8z M104,232l8,0 0,8 -8,0 0,-8z M112,232l8,0 0,8 -8,0 0,-8z M120,232l8,0 0,8 -8,0 0,-8z M144,232l8,0 0,8 -8,0 0,-8z M152,232l8,0 0,8 -8,0 0,-8z M160,232l8,0 0,8 -8,0 0,-8z M184,232l8,0 0,8 -8,0 0,-8z M208,232l8,0 0,8 -8,0 0,-8z M216,232l8,0 0,8 -8,0 0,-8z M232,232l8,0 0,8 -8,0 0,-8z M240,232l8,0 0,8 -8,0 0,-8z M248,232l8,0 0,8 -8,0 0,-8z M256,232l8,0 0,8 -8,0 0,-8z M264,232l8,0 0,8 -8,0 0,-8z M272,232l8,0 0,8 -8,0 0,-8z M280,232l8,0 0,8 -8,0 0,-8z M72,240l8,0 0,8 -8,0 0,-8z M88,240l8,0 0,8 -8,0 0,-8z M96,240l8,0 0,8 -8,0 0,-8z M128,240l8,0 0,8 -8,0 0,-8z M136,240l8,0 0,8 -8,0 0,-8z M144,240l8,0 0,8 -8,0 0,-8z M152,240l8,0 0,8 -8,0 0,-8z M160,240l8,0 0,8 -8,0 0,-8z M168,240l8,0 0,8 -8,0 0,-8z M192,240l8,0 0,8 -8,0 0,-8z M232,240l8,0 0,8 -8,0 0,-8z M264,240l8,0 0,8 -8,0 0,-8z M272,240l8,0 0,8 -8,0 0,-8z M280,240l8,0 0,8 -8,0 0,-8z M8,248l8,0 0,8 -8,0 0,-8z M16,248l8,0 0,8 -8,0 0,-8z M24,248l8,0 0,8 -8,0 0,-8z M32,248l8,0 0,8 -8,0 0,-8z M40,248l8,0 0,8 -8,0 0,-8z M48,248l8,0 0,8 -8,0 0,-8z M56,248l8,0 0,8 -8,0 0,-8z M72,248l8,0 0,8 -8,0 0,-8z M80,248l8,0 0,8 -8,0 0,-8z M96,248l8,0 0,8 -8,0 0,-8z M112,248l8,0 0,8 -8,0 0,-8z M128,248l8,0 0,8 -8,0 0,-8z M136,248l8,0 0,8 -8,0 0,-8z M160,248l8,0 0,8 -8,0 0,-8z M168,248l8,0 0,8 -8,0 0,-8z M192,248l8,0 0,8 -8,0 0,-8z M200,248l8,0 0,8 -8,0 0,-8z M216,248l8,0 0,8 -8,0 0,-8z M232,248l8,0 0,8 -8,0 0,-8z M248,248l8,0 0,8 -8,0 0,-8z M264,248l8,0 0,8 -8,0 0,-8z M272,248l8,0 0,8 -8,0 0,-8z M280,248l8,0 0,8 -8,0 0,-8z M296,248l8,0 0,8 -8,0 0,-8z M8,256l8,0 0,8 -8,0 0,-8z M56,256l8,0 0,8 -8,0 0,-8z M72,256l8,0 0,8 -8,0 0,-8z M104,256l8,0 0,8 -8,0 0,-8z M120,256l8,0 0,8 -8,0 0,-8z M136,256l8,0 0,8 -8,0 0,-8z M160,256l8,0 0,8 -8,0 0,-8z M168,256l8,0 0,8 -8,0 0,-8z M184,256l8,0 0,8 -8,0 0,-8z M192,256l8,0 0,8 -8,0 0,-8z M224,256l8,0 0,8 -8,0 0,-8z M232,256l8,0 0,8 -8,0 0,-8z M264,256l8,0 0,8 -8,0 0,-8z M272,256l8,0 0,8 -8,0 0,-8z M288,256l8,0 0,8 -8,0 0,-8z M296,256l8,0 0,8 -8,0 0,-8z M8,264l8,0 0,8 -8,0 0,-8z M24,264l8,0 0,8 -8,0 0,-8z M32,264l8,0 0,8 -8,0 0,-8z M40,264l8,0 0,8 -8,0 0,-8z M56,264l8,0 0,8 -8,0 0,-8z M96,264l8,0 0,8 -8,0 0,-8z M104,264l8,0 0,8 -8,0 0,-8z M112,264l8,0 0,8 -8,0 0,-8z M120,264l8,0 0,8 -8,0 0,-8z M128,264l8,0 0,8 -8,0 0,-8z M136,264l8,0 0,8 -8,0 0,-8z M144,264l8,0 0,8 -8,0 0,-8z M168,264l8,0 0,8 -8,0 0,-8z M184,264l8,0 0,8 -8,0 0,-8z M200,264l8,0 0,8 -8,0 0,-8z M208,264l8,0 0,8 -8,0 0,-8z M224,264l8,0 0,8 -8,0 0,-8z M232,264l8,0 0,8 -8,0 0,-8z M240,264l8,0 0,8 -8,0 0,-8z M248,264l8,0 0,8 -8,0 0,-8z M256,264l8,0 0,8 -8,0 0,-8z M264,264l8,0 0,8 -8,0 0,-8z M272,264l8,0 0,8 -8,0 0,-8z M280,264l8,0 0,8 -8,0 0,-8z M8,272l8,0 0,8 -8,0 0,-8z M24,272l8,0 0,8 -8,0 0,-8z M32,272l8,0 0,8 -8,0 0,-8z M40,272l8,0 0,8 -8,0 0,-8z M56,272l8,0 0,8 -8,0 0,-8z M80,272l8,0 0,8 -8,0 0,-8z M88,272l8,0 0,8 -8,0 0,-8z M96,272l8,0 0,8 -8,0 0,-8z M120,272l8,0 0,8 -8,0 0,-8z M128,272l8,0 0,8 -8,0 0,-8z M152,272l8,0 0,8 -8,0 0,-8z M176,272l8,0 0,8 -8,0 0,-8z M184,272l8,0 0,8 -8,0 0,-8z M192,272l8,0 0,8 -8,0 0,-8z M208,272l8,0 0,8 -8,0 0,-8z M216,272l8,0 0,8 -8,0 0,-8z M224,272l8,0 0,8 -8,0 0,-8z M240,272l8,0 0,8 -8,0 0,-8z M248,272l8,0 0,8 -8,0 0,-8z M280,272l8,0 0,8 -8,0 0,-8z M8,280l8,0 0,8 -8,0 0,-8z M24,280l8,0 0,8 -8,0 0,-8z M32,280l8,0 0,8 -8,0 0,-8z M40,280l8,0 0,8 -8,0 0,-8z M56,280l8,0 0,8 -8,0 0,-8z M80,280l8,0 0,8 -8,0 0,-8z M88,280l8,0 0,8 -8,0 0,-8z M104,280l8,0 0,8 -8,0 0,-8z M128,280l8,0 0,8 -8,0 0,-8z M136,280l8,0 0,8 -8,0 0,-8z M144,280l8,0 0,8 -8,0 0,-8z M168,280l8,0 0,8 -8,0 0,-8z M176,280l8,0 0,8 -8,0 0,-8z M184,280l8,0 0,8 -8,0 0,-8z M200,280l8,0 0,8 -8,0 0,-8z M208,280l8,0 0,8 -8,0 0,-8z M216,280l8,0 0,8 -8,0 0,-8z M232,280l8,0 0,8 -8,0 0,-8z M288,280l8,0 0,8 -8,0 0,-8z M296,280l8,0 0,8 -8,0 0,-8z M8,288l8,0 0,8 -8,0 0,-8z M56,288l8,0 0,8 -8,0 0,-8z M72,288l8,0 0,8 -8,0 0,-8z M80,288l8,0 0,8 -8,0 0,-8z M120,288l8,0 0,8 -8,0 0,-8z M168,288l8,0 0,8 -8,0 0,-8z M192,288l8,0 0,8 -8,0 0,-8z M200,288l8,0 0,8 -8,0 0,-8z M216,288l8,0 0,8 -8,0 0,-8z M232,288l8,0 0,8 -8,0 0,-8z M240,288l8,0 0,8 -8,0 0,-8z M248,288l8,0 0,8 -8,0 0,-8z M264,288l8,0 0,8 -8,0 0,-8z M272,288l8,0 0,8 -8,0 0,-8z M296,288l8,0 0,8 -8,0 0,-8z M8,296l8,0 0,8 -8,0 0,-8z M16,296l8,0 0,8 -8,0 0,-8z M24,296l8,0 0,8 -8,0 0,-8z M32,296l8,0 0,8 -8,0 0,-8z M40,296l8,0 0,8 -8,0 0,-8z M48,296l8,0 0,8 -8,0 0,-8z M56,296l8,0 0,8 -8,0 0,-8z M72,296l8,0 0,8 -8,0 0,-8z M80,296l8,0 0,8 -8,0 0,-8z M88,296l8,0 0,8 -8,0 0,-8z M96,296l8,0 0,8 -8,0 0,-8z M136,296l8,0 0,8 -8,0 0,-8z M160,296l8,0 0,8 -8,0 0,-8z M168,296l8,0 0,8 -8,0 0,-8z M200,296l8,0 0,8 -8,0 0,-8z M232,296l8,0 0,8 -8,0 0,-8z M256,296l8,0 0,8 -8,0 0,-8z M264,296l8,0 0,8 -8,0 0,-8z M272,296l8,0 0,8 -8,0 0,-8z M296,296l8,0 0,8 -8,0 0,-8z " stroke="transparent" fill="#000000"/></svg>