<svg version="1.1" xmlns="http://www.w3.org/2000/svg" width="300px" height="300px" viewBox="0 0 301 301"  preserveAspectRatio="xMinYMin meet"><rect width="100%" height="100%" fill="#ffffff" cx="0" cy="0"/><path d="M7,7l7,0 0,7 -7,0 0,-7z M14,7l7,0 0,7 -7,0 0,-7z M21,7l7,0 0,7 -7,0 0,-7z M28,7l7,0 0,7 -7,0 0,-7z M35,7l7,0 0,7 -7,0 0,-7z M42,7l7,0 0,7 -7,0 0,-7z M49,7l7,0 0,7 -7,0 0,-7z M63,7l7,0 0,7 -7,0 0,-7z M70,7l7,0 0,7 -7,0 0,-7z M84,7l7,0 0,7 -7,0 0,-7z M105,7l7,0 0,7 -7,0 0,-7z M133,7l7,0 0,7 -7,0 0,-7z M147,7l7,0 0,7 -7,0 0,-7z M182,7l7,0 0,7 -7,0 0,-7z M189,7l7,0 0,7 -7,0 0,-7z M210,7l7,0 0,7 -7,0 0,-7z M217,7l7,0 0,7 -7,0 0,-7z M245,7l7,0 0,7 -7,0 0,-7z M252,7l7,0 0,7 -7,0 0,-7z M259,7l7,0 0,7 -7,0 0,-7z M266,7l7,0 0,7 -7,0 0,-7z M273,7l7,0 0,7 -7,0 0,-7z M280,7l7,0 0,7 -7,0 0,-7z M287,7l7,0 0,7 -7,0 0,-7z M7,14l7,0 0,7 -7,0 0,-7z M49,14l7,0 0,7 -7,0 0,-7z M77,14l7,0 0,7 -7,0 0,-7z M84,14l7,0 0,7 -7,0 0,-7z M91,14l7,0 0,7 -7,0 0,-7z M119,14l7,0 0,7 -7,0 0,-7z M126,14l7,0 0,7 -7,0 0,-7z M140,14l7,0 0,7 -7,0 0,-7z M147,14l7,0 0,7 -7,0 0,-7z M154,14l7,0 0,7 -7,0 0,-7z M161,14l7,0 0,7 -7,0 0,-7z M175,14l7,0 0,7 -7,0 0,-7z M182,14l7,0 0,7 -7,0 0,-7z M189,14l7,0 0,7 -7,0 0,-7z M210,14l7,0 0,7 -7,0 0,-7z M224,14l7,0 0,7 -7,0 0,-7z M245,14l7,0 0,7 -7,0 0,-7z M287,14l7,0 0,7 -7,0 0,-7z M7,21l7,0 0,7 -7,0 0,-7z M21,21l7,0 0,7 -7,0 0,-7z M28,21l7,0 0,7 -7,0 0,-7z M35,21l7,0 0,7 -7,0 0,-7z M49,21l7,0 0,7 -7,0 0,-7z M70,21l7,0 0,7 -7,0 0,-7z M77,21l7,0 0,7 -7,0 0,-7z M84,21l7,0 0,7 -7,0 0,-7z M126,21l7,0 0,7 -7,0 0,-7z M133,21l7,0 0,7 -7,0 0,-7z M140,21l7,0 0,7 -7,0 0,-7z M154,21l7,0 0,7 -7,0 0,-7z M161,21l7,0 0,7 -7,0 0,-7z M175,21l7,0 0,7 -7,0 0,-7z M182,21l7,0 0,7 -7,0 0,-7z M189,21l7,0 0,7 -7,0 0,-7z M196,21l7,0 0,7 -7,0 0,-7z M224,21l7,0 0,7 -7,0 0,-7z M231,21l7,0 0,7 -7,0 0,-7z M245,21l7,0 0,7 -7,0 0,-7z M259,21l7,0 0,7 -7,0 0,-7z M266,21l7,0 0,7 -7,0 0,-7z M273,21l7,0 0,7 -7,0 0,-7z M287,21l7,0 0,7 -7,0 0,-7z M7,28l7,0 0,7 -7,0 0,-7z M21,28l7,0 0,7 -7,0 0,-7z M28,28l7,0 0,7 -7,0 0,-7z M35,28l7,0 0,7 -7,0 0,-7z M49,28l7,0 0,7 -7,0 0,-7z M70,28l7,0 0,7 -7,0 0,-7z M77,28l7,0 0,7 -7,0 0,-7z M84,28l7,0 0,7 -7,0 0,-7z M140,28l7,0 0,7 -7,0 0,-7z M154,28l7,0 0,7 -7,0 0,-7z M168,28l7,0 0,7 -7,0 0,-7z M175,28l7,0 0,7 -7,0 0,-7z M182,28l7,0 0,7 -7,0 0,-7z M196,28l7,0 0,7 -7,0 0,-7z M203,28l7,0 0,7 -7,0 0,-7z M210,28l7,0 0,7 -7,0 0,-7z M217,28l7,0 0,7 -7,0 0,-7z M231,28l7,0 0,7 -7,0 0,-7z M245,28l7,0 0,7 -7,0 0,-7z M259,28l7,0 0,7 -7,0 0,-7z M266,28l7,0 0,7 -7,0 0,-7z M273,28l7,0 0,7 -7,0 0,-7z M287,28l7,0 0,7 -7,0 0,-7z M7,35l7,0 0,7 -7,0 0,-7z M21,35l7,0 0,7 -7,0 0,-7z M28,35l7,0 0,7 -7,0 0,-7z M35,35l7,0 0,7 -7,0 0,-7z M49,35l7,0 0,7 -7,0 0,-7z M70,35l7,0 0,7 -7,0 0,-7z M91,35l7,0 0,7 -7,0 0,-7z M98,35l7,0 0,7 -7,0 0,-7z M105,35l7,0 0,7 -7,0 0,-7z M112,35l7,0 0,7 -7,0 0,-7z M133,35l7,0 0,7 -7,0 0,-7z M147,35l7,0 0,7 -7,0 0,-7z M154,35l7,0 0,7 -7,0 0,-7z M175,35l7,0 0,7 -7,0 0,-7z M189,35l7,0 0,7 -7,0 0,-7z M203,35l7,0 0,7 -7,0 0,-7z M210,35l7,0 0,7 -7,0 0,-7z M217,35l7,0 0,7 -7,0 0,-7z M224,35l7,0 0,7 -7,0 0,-7z M245,35l7,0 0,7 -7,0 0,-7z M259,35l7,0 0,7 -7,0 0,-7z M266,35l7,0 0,7 -7,0 0,-7z M273,35l7,0 0,7 -7,0 0,-7z M287,35l7,0 0,7 -7,0 0,-7z M7,42l7,0 0,7 -7,0 0,-7z M49,42l7,0 0,7 -7,0 0,-7z M70,42l7,0 0,7 -7,0 0,-7z M77,42l7,0 0,7 -7,0 0,-7z M105,42l7,0 0,7 -7,0 0,-7z M147,42l7,0 0,7 -7,0 0,-7z M168,42l7,0 0,7 -7,0 0,-7z M175,42l7,0 0,7 -7,0 0,-7z M189,42l7,0 0,7 -7,0 0,-7z M210,42l7,0 0,7 -7,0 0,-7z M217,42l7,0 0,7 -7,0 0,-7z M245,42l7,0 0,7 -7,0 0,-7z M287,42l7,0 0,7 -7,0 0,-7z M7,49l7,0 0,7 -7,0 0,-7z M14,49l7,0 0,7 -7,0 0,-7z M21,49l7,0 0,7 -7,0 0,-7z M28,49l7,0 0,7 -7,0 0,-7z M35,49l7,0 0,7 -7,0 0,-7z M42,49l7,0 0,7 -7,0 0,-7z M49,49l7,0 0,7 -7,0 0,-7z M63,49l7,0 0,7 -7,0 0,-7z M77,49l7,0 0,7 -7,0 0,-7z M91,49l7,0 0,7 -7,0 0,-7z M105,49l7,0 0,7 -7,0 0,-7z M119,49l7,0 0,7 -7,0 0,-7z M133,49l7,0 0,7 -7,0 0,-7z M147,49l7,0 0,7 -7,0 0,-7z M161,49l7,0 0,7 -7,0 0,-7z M175,49l7,0 0,7 -7,0 0,-7z M189,49l7,0 0,7 -7,0 0,-7z M203,49l7,0 0,7 -7,0 0,-7z M217,49l7,0 0,7 -7,0 0,-7z M231,49l7,0 0,7 -7,0 0,-7z M245,49l7,0 0,7 -7,0 0,-7z M252,49l7,0 0,7 -7,0 0,-7z M259,49l7,0 0,7 -7,0 0,-7z M266,49l7,0 0,7 -7,0 0,-7z M273,49l7,0 0,7 -7,0 0,-7z M280,49l7,0 0,7 -7,0 0,-7z M287,49l7,0 0,7 -7,0 0,-7z M63,56l7,0 0,7 -7,0 0,-7z M84,56l7,0 0,7 -7,0 0,-7z M91,56l7,0 0,7 -7,0 0,-7z M98,56l7,0 0,7 -7,0 0,-7z M105,56l7,0 0,7 -7,0 0,-7z M140,56l7,0 0,7 -7,0 0,-7z M147,56l7,0 0,7 -7,0 0,-7z M161,56l7,0 0,7 -7,0 0,-7z M168,56l7,0 0,7 -7,0 0,-7z M175,56l7,0 0,7 -7,0 0,-7z M182,56l7,0 0,7 -7,0 0,-7z M203,56l7,0 0,7 -7,0 0,-7z M7,63l7,0 0,7 -7,0 0,-7z M14,63l7,0 0,7 -7,0 0,-7z M28,63l7,0 0,7 -7,0 0,-7z M35,63l7,0 0,7 -7,0 0,-7z M49,63l7,0 0,7 -7,0 0,-7z M77,63l7,0 0,7 -7,0 0,-7z M91,63l7,0 0,7 -7,0 0,-7z M105,63l7,0 0,7 -7,0 0,-7z M112,63l7,0 0,7 -7,0 0,-7z M119,63l7,0 0,7 -7,0 0,-7z M140,63l7,0 0,7 -7,0 0,-7z M175,63l7,0 0,7 -7,0 0,-7z M203,63l7,0 0,7 -7,0 0,-7z M210,63l7,0 0,7 -7,0 0,-7z M245,63l7,0 0,7 -7,0 0,-7z M287,63l7,0 0,7 -7,0 0,-7z M28,70l7,0 0,7 -7,0 0,-7z M56,70l7,0 0,7 -7,0 0,-7z M63,70l7,0 0,7 -7,0 0,-7z M70,70l7,0 0,7 -7,0 0,-7z M91,70l7,0 0,7 -7,0 0,-7z M105,70l7,0 0,7 -7,0 0,-7z M112,70l7,0 0,7 -7,0 0,-7z M133,70l7,0 0,7 -7,0 0,-7z M140,70l7,0 0,7 -7,0 0,-7z M154,70l7,0 0,7 -7,0 0,-7z M161,70l7,0 0,7 -7,0 0,-7z M168,70l7,0 0,7 -7,0 0,-7z M182,70l7,0 0,7 -7,0 0,-7z M189,70l7,0 0,7 -7,0 0,-7z M196,70l7,0 0,7 -7,0 0,-7z M210,70l7,0 0,7 -7,0 0,-7z M224,70l7,0 0,7 -7,0 0,-7z M252,70l7,0 0,7 -7,0 0,-7z M259,70l7,0 0,7 -7,0 0,-7z M266,70l7,0 0,7 -7,0 0,-7z M273,70l7,0 0,7 -7,0 0,-7z M7,77l7,0 0,7 -7,0 0,-7z M35,77l7,0 0,7 -7,0 0,-7z M42,77l7,0 0,7 -7,0 0,-7z M49,77l7,0 0,7 -7,0 0,-7z M70,77l7,0 0,7 -7,0 0,-7z M77,77l7,0 0,7 -7,0 0,-7z M105,77l7,0 0,7 -7,0 0,-7z M112,77l7,0 0,7 -7,0 0,-7z M126,77l7,0 0,7 -7,0 0,-7z M133,77l7,0 0,7 -7,0 0,-7z M154,77l7,0 0,7 -7,0 0,-7z M168,77l7,0 0,7 -7,0 0,-7z M175,77l7,0 0,7 -7,0 0,-7z M182,77l7,0 0,7 -7,0 0,-7z M196,77l7,0 0,7 -7,0 0,-7z M203,77l7,0 0,7 -7,0 0,-7z M210,77l7,0 0,7 -7,0 0,-7z M238,77l7,0 0,7 -7,0 0,-7z M273,77l7,0 0,7 -7,0 0,-7z M21,84l7,0 0,7 -7,0 0,-7z M28,84l7,0 0,7 -7,0 0,-7z M56,84l7,0 0,7 -7,0 0,-7z M77,84l7,0 0,7 -7,0 0,-7z M84,84l7,0 0,7 -7,0 0,-7z M105,84l7,0 0,7 -7,0 0,-7z M112,84l7,0 0,7 -7,0 0,-7z M126,84l7,0 0,7 -7,0 0,-7z M140,84l7,0 0,7 -7,0 0,-7z M168,84l7,0 0,7 -7,0 0,-7z M196,84l7,0 0,7 -7,0 0,-7z M210,84l7,0 0,7 -7,0 0,-7z M224,84l7,0 0,7 -7,0 0,-7z M245,84l7,0 0,7 -7,0 0,-7z M266,84l7,0 0,7 -7,0 0,-7z M280,84l7,0 0,7 -7,0 0,-7z M287,84l7,0 0,7 -7,0 0,-7z M14,91l7,0 0,7 -7,0 0,-7z M21,91l7,0 0,7 -7,0 0,-7z M28,91l7,0 0,7 -7,0 0,-7z M35,91l7,0 0,7 -7,0 0,-7z M49,91l7,0 0,7 -7,0 0,-7z M63,91l7,0 0,7 -7,0 0,-7z M91,91l7,0 0,7 -7,0 0,-7z M98,91l7,0 0,7 -7,0 0,-7z M105,91l7,0 0,7 -7,0 0,-7z M119,91l7,0 0,7 -7,0 0,-7z M126,91l7,0 0,7 -7,0 0,-7z M133,91l7,0 0,7 -7,0 0,-7z M140,91l7,0 0,7 -7,0 0,-7z M147,91l7,0 0,7 -7,0 0,-7z M168,91l7,0 0,7 -7,0 0,-7z M175,91l7,0 0,7 -7,0 0,-7z M196,91l7,0 0,7 -7,0 0,-7z M203,91l7,0 0,7 -7,0 0,-7z M224,91l7,0 0,7 -7,0 0,-7z M231,91l7,0 0,7 -7,0 0,-7z M238,91l7,0 0,7 -7,0 0,-7z M245,91l7,0 0,7 -7,0 0,-7z M7,98l7,0 0,7 -7,0 0,-7z M21,98l7,0 0,7 -7,0 0,-7z M35,98l7,0 0,7 -7,0 0,-7z M56,98l7,0 0,7 -7,0 0,-7z M70,98l7,0 0,7 -7,0 0,-7z M77,98l7,0 0,7 -7,0 0,-7z M98,98l7,0 0,7 -7,0 0,-7z M119,98l7,0 0,7 -7,0 0,-7z M140,98l7,0 0,7 -7,0 0,-7z M161,98l7,0 0,7 -7,0 0,-7z M168,98l7,0 0,7 -7,0 0,-7z M189,98l7,0 0,7 -7,0 0,-7z M196,98l7,0 0,7 -7,0 0,-7z M245,98l7,0 0,7 -7,0 0,-7z M259,98l7,0 0,7 -7,0 0,-7z M266,98l7,0 0,7 -7,0 0,-7z M273,98l7,0 0,7 -7,0 0,-7z M280,98l7,0 0,7 -7,0 0,-7z M287,98l7,0 0,7 -7,0 0,-7z M7,105l7,0 0,7 -7,0 0,-7z M42,105l7,0 0,7 -7,0 0,-7z M49,105l7,0 0,7 -7,0 0,-7z M56,105l7,0 0,7 -7,0 0,-7z M63,105l7,0 0,7 -7,0 0,-7z M70,105l7,0 0,7 -7,0 0,-7z M84,105l7,0 0,7 -7,0 0,-7z M91,105l7,0 0,7 -7,0 0,-7z M98,105l7,0 0,7 -7,0 0,-7z M105,105l7,0 0,7 -7,0 0,-7z M119,105l7,0 0,7 -7,0 0,-7z M161,105l7,0 0,7 -7,0 0,-7z M189,105l7,0 0,7 -7,0 0,-7z M196,105l7,0 0,7 -7,0 0,-7z M210,105l7,0 0,7 -7,0 0,-7z M217,105l7,0 0,7 -7,0 0,-7z M224,105l7,0 0,7 -7,0 0,-7z M231,105l7,0 0,7 -7,0 0,-7z M252,105l7,0 0,7 -7,0 0,-7z M259,105l7,0 0,7 -7,0 0,-7z M287,105l7,0 0,7 -7,0 0,-7z M14,112l7,0 0,7 -7,0 0,-7z M21,112l7,0 0,7 -7,0 0,-7z M28,112l7,0 0,7 -7,0 0,-7z M35,112l7,0 0,7 -7,0 0,-7z M42,112l7,0 0,7 -7,0 0,-7z M56,112l7,0 0,7 -7,0 0,-7z M63,112l7,0 0,7 -7,0 0,-7z M84,112l7,0 0,7 -7,0 0,-7z M112,112l7,0 0,7 -7,0 0,-7z M133,112l7,0 0,7 -7,0 0,-7z M140,112l7,0 0,7 -7,0 0,-7z M161,112l7,0 0,7 -7,0 0,-7z M189,112l7,0 0,7 -7,0 0,-7z M196,112l7,0 0,7 -7,0 0,-7z M217,112l7,0 0,7 -7,0 0,-7z M231,112l7,0 0,7 -7,0 0,-7z M245,112l7,0 0,7 -7,0 0,-7z M259,112l7,0 0,7 -7,0 0,-7z M266,112l7,0 0,7 -7,0 0,-7z M273,112l7,0 0,7 -7,0 0,-7z M287,112l7,0 0,7 -7,0 0,-7z M7,119l7,0 0,7 -7,0 0,-7z M14,119l7,0 0,7 -7,0 0,-7z M28,119l7,0 0,7 -7,0 0,-7z M42,119l7,0 0,7 -7,0 0,-7z M49,119l7,0 0,7 -7,0 0,-7z M56,119l7,0 0,7 -7,0 0,-7z M77,119l7,0 0,7 -7,0 0,-7z M91,119l7,0 0,7 -7,0 0,-7z M140,119l7,0 0,7 -7,0 0,-7z M147,119l7,0 0,7 -7,0 0,-7z M168,119l7,0 0,7 -7,0 0,-7z M182,119l7,0 0,7 -7,0 0,-7z M224,119l7,0 0,7 -7,0 0,-7z M252,119l7,0 0,7 -7,0 0,-7z M266,119l7,0 0,7 -7,0 0,-7z M14,126l7,0 0,7 -7,0 0,-7z M21,126l7,0 0,7 -7,0 0,-7z M63,126l7,0 0,7 -7,0 0,-7z M77,126l7,0 0,7 -7,0 0,-7z M98,126l7,0 0,7 -7,0 0,-7z M105,126l7,0 0,7 -7,0 0,-7z M112,126l7,0 0,7 -7,0 0,-7z M133,126l7,0 0,7 -7,0 0,-7z M140,126l7,0 0,7 -7,0 0,-7z M147,126l7,0 0,7 -7,0 0,-7z M161,126l7,0 0,7 -7,0 0,-7z M196,126l7,0 0,7 -7,0 0,-7z M210,126l7,0 0,7 -7,0 0,-7z M217,126l7,0 0,7 -7,0 0,-7z M224,126l7,0 0,7 -7,0 0,-7z M231,126l7,0 0,7 -7,0 0,-7z M259,126l7,0 0,7 -7,0 0,-7z M28,133l7,0 0,7 -7,0 0,-7z M42,133l7,0 0,7 -7,0 0,-7z M49,133l7,0 0,7 -7,0 0,-7z M63,133l7,0 0,7 -7,0 0,-7z M70,133l7,0 0,7 -7,0 0,-7z M77,133l7,0 0,7 -7,0 0,-7z M84,133l7,0 0,7 -7,0 0,-7z M91,133l7,0 0,7 -7,0 0,-7z M112,133l7,0 0,7 -7,0 0,-7z M140,133l7,0 0,7 -7,0 0,-7z M147,133l7,0 0,7 -7,0 0,-7z M154,133l7,0 0,7 -7,0 0,-7z M161,133l7,0 0,7 -7,0 0,-7z M168,133l7,0 0,7 -7,0 0,-7z M182,133l7,0 0,7 -7,0 0,-7z M196,133l7,0 0,7 -7,0 0,-7z M217,133l7,0 0,7 -7,0 0,-7z M224,133l7,0 0,7 -7,0 0,-7z M266,133l7,0 0,7 -7,0 0,-7z M273,133l7,0 0,7 -7,0 0,-7z M287,133l7,0 0,7 -7,0 0,-7z M7,140l7,0 0,7 -7,0 0,-7z M28,140l7,0 0,7 -7,0 0,-7z M35,140l7,0 0,7 -7,0 0,-7z M42,140l7,0 0,7 -7,0 0,-7z M56,140l7,0 0,7 -7,0 0,-7z M63,140l7,0 0,7 -7,0 0,-7z M70,140l7,0 0,7 -7,0 0,-7z M77,140l7,0 0,7 -7,0 0,-7z M105,140l7,0 0,7 -7,0 0,-7z M126,140l7,0 0,7 -7,0 0,-7z M133,140l7,0 0,7 -7,0 0,-7z M175,140l7,0 0,7 -7,0 0,-7z M182,140l7,0 0,7 -7,0 0,-7z M189,140l7,0 0,7 -7,0 0,-7z M196,140l7,0 0,7 -7,0 0,-7z M203,140l7,0 0,7 -7,0 0,-7z M217,140l7,0 0,7 -7,0 0,-7z M224,140l7,0 0,7 -7,0 0,-7z M238,140l7,0 0,7 -7,0 0,-7z M259,140l7,0 0,7 -7,0 0,-7z M273,140l7,0 0,7 -7,0 0,-7z M280,140l7,0 0,7 -7,0 0,-7z M287,140l7,0 0,7 -7,0 0,-7z M7,147l7,0 0,7 -7,0 0,-7z M28,147l7,0 0,7 -7,0 0,-7z M49,147l7,0 0,7 -7,0 0,-7z M56,147l7,0 0,7 -7,0 0,-7z M63,147l7,0 0,7 -7,0 0,-7z M70,147l7,0 0,7 -7,0 0,-7z M77,147l7,0 0,7 -7,0 0,-7z M84,147l7,0 0,7 -7,0 0,-7z M98,147l7,0 0,7 -7,0 0,-7z M105,147l7,0 0,7 -7,0 0,-7z M112,147l7,0 0,7 -7,0 0,-7z M147,147l7,0 0,7 -7,0 0,-7z M168,147l7,0 0,7 -7,0 0,-7z M203,147l7,0 0,7 -7,0 0,-7z M210,147l7,0 0,7 -7,0 0,-7z M224,147l7,0 0,7 -7,0 0,-7z M245,147l7,0 0,7 -7,0 0,-7z M252,147l7,0 0,7 -7,0 0,-7z M273,147l7,0 0,7 -7,0 0,-7z M7,154l7,0 0,7 -7,0 0,-7z M21,154l7,0 0,7 -7,0 0,-7z M28,154l7,0 0,7 -7,0 0,-7z M35,154l7,0 0,7 -7,0 0,-7z M42,154l7,0 0,7 -7,0 0,-7z M63,154l7,0 0,7 -7,0 0,-7z M70,154l7,0 0,7 -7,0 0,-7z M77,154l7,0 0,7 -7,0 0,-7z M91,154l7,0 0,7 -7,0 0,-7z M105,154l7,0 0,7 -7,0 0,-7z M119,154l7,0 0,7 -7,0 0,-7z M133,154l7,0 0,7 -7,0 0,-7z M147,154l7,0 0,7 -7,0 0,-7z M154,154l7,0 0,7 -7,0 0,-7z M168,154l7,0 0,7 -7,0 0,-7z M189,154l7,0 0,7 -7,0 0,-7z M196,154l7,0 0,7 -7,0 0,-7z M224,154l7,0 0,7 -7,0 0,-7z M259,154l7,0 0,7 -7,0 0,-7z M273,154l7,0 0,7 -7,0 0,-7z M280,154l7,0 0,7 -7,0 0,-7z M14,161l7,0 0,7 -7,0 0,-7z M21,161l7,0 0,7 -7,0 0,-7z M28,161l7,0 0,7 -7,0 0,-7z M49,161l7,0 0,7 -7,0 0,-7z M84,161l7,0 0,7 -7,0 0,-7z M98,161l7,0 0,7 -7,0 0,-7z M112,161l7,0 0,7 -7,0 0,-7z M119,161l7,0 0,7 -7,0 0,-7z M126,161l7,0 0,7 -7,0 0,-7z M133,161l7,0 0,7 -7,0 0,-7z M161,161l7,0 0,7 -7,0 0,-7z M168,161l7,0 0,7 -7,0 0,-7z M175,161l7,0 0,7 -7,0 0,-7z M182,161l7,0 0,7 -7,0 0,-7z M189,161l7,0 0,7 -7,0 0,-7z M196,161l7,0 0,7 -7,0 0,-7z M203,161l7,0 0,7 -7,0 0,-7z M217,161l7,0 0,7 -7,0 0,-7z M238,161l7,0 0,7 -7,0 0,-7z M266,161l7,0 0,7 -7,0 0,-7z M21,168l7,0 0,7 -7,0 0,-7z M42,168l7,0 0,7 -7,0 0,-7z M56,168l7,0 0,7 -7,0 0,-7z M63,168l7,0 0,7 -7,0 0,-7z M70,168l7,0 0,7 -7,0 0,-7z M77,168l7,0 0,7 -7,0 0,-7z M84,168l7,0 0,7 -7,0 0,-7z M91,168l7,0 0,7 -7,0 0,-7z M119,168l7,0 0,7 -7,0 0,-7z M126,168l7,0 0,7 -7,0 0,-7z M168,168l7,0 0,7 -7,0 0,-7z M175,168l7,0 0,7 -7,0 0,-7z M189,168l7,0 0,7 -7,0 0,-7z M203,168l7,0 0,7 -7,0 0,-7z M210,168l7,0 0,7 -7,0 0,-7z M224,168l7,0 0,7 -7,0 0,-7z M238,168l7,0 0,7 -7,0 0,-7z M245,168l7,0 0,7 -7,0 0,-7z M266,168l7,0 0,7 -7,0 0,-7z M287,168l7,0 0,7 -7,0 0,-7z M28,175l7,0 0,7 -7,0 0,-7z M35,175l7,0 0,7 -7,0 0,-7z M49,175l7,0 0,7 -7,0 0,-7z M77,175l7,0 0,7 -7,0 0,-7z M84,175l7,0 0,7 -7,0 0,-7z M91,175l7,0 0,7 -7,0 0,-7z M112,175l7,0 0,7 -7,0 0,-7z M119,175l7,0 0,7 -7,0 0,-7z M140,175l7,0 0,7 -7,0 0,-7z M147,175l7,0 0,7 -7,0 0,-7z M175,175l7,0 0,7 -7,0 0,-7z M203,175l7,0 0,7 -7,0 0,-7z M231,175l7,0 0,7 -7,0 0,-7z M245,175l7,0 0,7 -7,0 0,-7z M252,175l7,0 0,7 -7,0 0,-7z M280,175l7,0 0,7 -7,0 0,-7z M7,182l7,0 0,7 -7,0 0,-7z M42,182l7,0 0,7 -7,0 0,-7z M84,182l7,0 0,7 -7,0 0,-7z M98,182l7,0 0,7 -7,0 0,-7z M105,182l7,0 0,7 -7,0 0,-7z M112,182l7,0 0,7 -7,0 0,-7z M119,182l7,0 0,7 -7,0 0,-7z M154,182l7,0 0,7 -7,0 0,-7z M168,182l7,0 0,7 -7,0 0,-7z M189,182l7,0 0,7 -7,0 0,-7z M196,182l7,0 0,7 -7,0 0,-7z M203,182l7,0 0,7 -7,0 0,-7z M217,182l7,0 0,7 -7,0 0,-7z M245,182l7,0 0,7 -7,0 0,-7z M252,182l7,0 0,7 -7,0 0,-7z M259,182l7,0 0,7 -7,0 0,-7z M266,182l7,0 0,7 -7,0 0,-7z M273,182l7,0 0,7 -7,0 0,-7z M287,182l7,0 0,7 -7,0 0,-7z M14,189l7,0 0,7 -7,0 0,-7z M42,189l7,0 0,7 -7,0 0,-7z M49,189l7,0 0,7 -7,0 0,-7z M56,189l7,0 0,7 -7,0 0,-7z M70,189l7,0 0,7 -7,0 0,-7z M77,189l7,0 0,7 -7,0 0,-7z M91,189l7,0 0,7 -7,0 0,-7z M98,189l7,0 0,7 -7,0 0,-7z M112,189l7,0 0,7 -7,0 0,-7z M119,189l7,0 0,7 -7,0 0,-7z M133,189l7,0 0,7 -7,0 0,-7z M140,189l7,0 0,7 -7,0 0,-7z M147,189l7,0 0,7 -7,0 0,-7z M154,189l7,0 0,7 -7,0 0,-7z M161,189l7,0 0,7 -7,0 0,-7z M182,189l7,0 0,7 -7,0 0,-7z M189,189l7,0 0,7 -7,0 0,-7z M196,189l7,0 0,7 -7,0 0,-7z M210,189l7,0 0,7 -7,0 0,-7z M217,189l7,0 0,7 -7,0 0,-7z M224,189l7,0 0,7 -7,0 0,-7z M252,189l7,0 0,7 -7,0 0,-7z M273,189l7,0 0,7 -7,0 0,-7z M280,189l7,0 0,7 -7,0 0,-7z M287,189l7,0 0,7 -7,0 0,-7z M42,196l7,0 0,7 -7,0 0,-7z M56,196l7,0 0,7 -7,0 0,-7z M63,196l7,0 0,7 -7,0 0,-7z M70,196l7,0 0,7 -7,0 0,-7z M77,196l7,0 0,7 -7,0 0,-7z M84,196l7,0 0,7 -7,0 0,-7z M91,196l7,0 0,7 -7,0 0,-7z M112,196l7,0 0,7 -7,0 0,-7z M119,196l7,0 0,7 -7,0 0,-7z M168,196l7,0 0,7 -7,0 0,-7z M196,196l7,0 0,7 -7,0 0,-7z M224,196l7,0 0,7 -7,0 0,-7z M231,196l7,0 0,7 -7,0 0,-7z M245,196l7,0 0,7 -7,0 0,-7z M252,196l7,0 0,7 -7,0 0,-7z M273,196l7,0 0,7 -7,0 0,-7z M14,203l7,0 0,7 -7,0 0,-7z M21,203l7,0 0,7 -7,0 0,-7z M28,203l7,0 0,7 -7,0 0,-7z M42,203l7,0 0,7 -7,0 0,-7z M49,203l7,0 0,7 -7,0 0,-7z M56,203l7,0 0,7 -7,0 0,-7z M63,203l7,0 0,7 -7,0 0,-7z M84,203l7,0 0,7 -7,0 0,-7z M91,203l7,0 0,7 -7,0 0,-7z M105,203l7,0 0,7 -7,0 0,-7z M112,203l7,0 0,7 -7,0 0,-7z M126,203l7,0 0,7 -7,0 0,-7z M133,203l7,0 0,7 -7,0 0,-7z M147,203l7,0 0,7 -7,0 0,-7z M161,203l7,0 0,7 -7,0 0,-7z M168,203l7,0 0,7 -7,0 0,-7z M175,203l7,0 0,7 -7,0 0,-7z M182,203l7,0 0,7 -7,0 0,-7z M231,203l7,0 0,7 -7,0 0,-7z M252,203l7,0 0,7 -7,0 0,-7z M266,203l7,0 0,7 -7,0 0,-7z M280,203l7,0 0,7 -7,0 0,-7z M7,210l7,0 0,7 -7,0 0,-7z M14,210l7,0 0,7 -7,0 0,-7z M42,210l7,0 0,7 -7,0 0,-7z M56,210l7,0 0,7 -7,0 0,-7z M63,210l7,0 0,7 -7,0 0,-7z M70,210l7,0 0,7 -7,0 0,-7z M77,210l7,0 0,7 -7,0 0,-7z M84,210l7,0 0,7 -7,0 0,-7z M98,210l7,0 0,7 -7,0 0,-7z M105,210l7,0 0,7 -7,0 0,-7z M126,210l7,0 0,7 -7,0 0,-7z M147,210l7,0 0,7 -7,0 0,-7z M154,210l7,0 0,7 -7,0 0,-7z M161,210l7,0 0,7 -7,0 0,-7z M182,210l7,0 0,7 -7,0 0,-7z M196,210l7,0 0,7 -7,0 0,-7z M224,210l7,0 0,7 -7,0 0,-7z M231,210l7,0 0,7 -7,0 0,-7z M252,210l7,0 0,7 -7,0 0,-7z M259,210l7,0 0,7 -7,0 0,-7z M266,210l7,0 0,7 -7,0 0,-7z M7,217l7,0 0,7 -7,0 0,-7z M14,217l7,0 0,7 -7,0 0,-7z M21,217l7,0 0,7 -7,0 0,-7z M49,217l7,0 0,7 -7,0 0,-7z M56,217l7,0 0,7 -7,0 0,-7z M77,217l7,0 0,7 -7,0 0,-7z M91,217l7,0 0,7 -7,0 0,-7z M98,217l7,0 0,7 -7,0 0,-7z M105,217l7,0 0,7 -7,0 0,-7z M119,217l7,0 0,7 -7,0 0,-7z M126,217l7,0 0,7 -7,0 0,-7z M147,217l7,0 0,7 -7,0 0,-7z M161,217l7,0 0,7 -7,0 0,-7z M168,217l7,0 0,7 -7,0 0,-7z M175,217l7,0 0,7 -7,0 0,-7z M196,217l7,0 0,7 -7,0 0,-7z M203,217l7,0 0,7 -7,0 0,-7z M210,217l7,0 0,7 -7,0 0,-7z M217,217l7,0 0,7 -7,0 0,-7z M224,217l7,0 0,7 -7,0 0,-7z M231,217l7,0 0,7 -7,0 0,-7z M238,217l7,0 0,7 -7,0 0,-7z M245,217l7,0 0,7 -7,0 0,-7z M252,217l7,0 0,7 -7,0 0,-7z M266,217l7,0 0,7 -7,0 0,-7z M273,217l7,0 0,7 -7,0 0,-7z M287,217l7,0 0,7 -7,0 0,-7z M7,224l7,0 0,7 -7,0 0,-7z M14,224l7,0 0,7 -7,0 0,-7z M21,224l7,0 0,7 -7,0 0,-7z M28,224l7,0 0,7 -7,0 0,-7z M77,224l7,0 0,7 -7,0 0,-7z M84,224l7,0 0,7 -7,0 0,-7z M98,224l7,0 0,7 -7,0 0,-7z M112,224l7,0 0,7 -7,0 0,-7z M119,224l7,0 0,7 -7,0 0,-7z M133,224l7,0 0,7 -7,0 0,-7z M182,224l7,0 0,7 -7,0 0,-7z M203,224l7,0 0,7 -7,0 0,-7z M217,224l7,0 0,7 -7,0 0,-7z M245,224l7,0 0,7 -7,0 0,-7z M259,224l7,0 0,7 -7,0 0,-7z M273,224l7,0 0,7 -7,0 0,-7z M280,224l7,0 0,7 -7,0 0,-7z M287,224l7,0 0,7 -7,0 0,-7z M7,231l7,0 0,7 -7,0 0,-7z M14,231l7,0 0,7 -7,0 0,-7z M21,231l7,0 0,7 -7,0 0,-7z M28,231l7,0 0,7 -7,0 0,-7z M42,231l7,0 0,7 -7,0 0,-7z M49,231l7,0 0,7 -7,0 0,-7z M63,231l7,0 0,7 -7,0 0,-7z M70,231l7,0 0,7 -7,0 0,-7z M84,231l7,0 0,7 -7,0 0,-7z M91,231l7,0 0,7 -7,0 0,-7z M105,231l7,0 0,7 -7,0 0,-7z M126,231l7,0 0,7 -7,0 0,-7z M175,231l7,0 0,7 -7,0 0,-7z M189,231l7,0 0,7 -7,0 0,-7z M196,231l7,0 0,7 -7,0 0,-7z M203,231l7,0 0,7 -7,0 0,-7z M210,231l7,0 0,7 -7,0 0,-7z M217,231l7,0 0,7 -7,0 0,-7z M231,231l7,0 0,7 -7,0 0,-7z M238,231l7,0 0,7 -7,0 0,-7z M245,231l7,0 0,7 -7,0 0,-7z M252,231l7,0 0,7 -7,0 0,-7z M259,231l7,0 0,7 -7,0 0,-7z M266,231l7,0 0,7 -7,0 0,-7z M273,231l7,0 0,7 -7,0 0,-7z M63,238l7,0 0,7 -7,0 0,-7z M84,238l7,0 0,7 -7,0 0,-7z M98,238l7,0 0,7 -7,0 0,-7z M112,238l7,0 0,7 -7,0 0,-7z M126,238l7,0 0,7 -7,0 0,-7z M133,238l7,0 0,7 -7,0 0,-7z M140,238l7,0 0,7 -7,0 0,-7z M154,238l7,0 0,7 -7,0 0,-7z M161,238l7,0 0,7 -7,0 0,-7z M168,238l7,0 0,7 -7,0 0,-7z M189,238l7,0 0,7 -7,0 0,-7z M196,238l7,0 0,7 -7,0 0,-7z M217,238l7,0 0,7 -7,0 0,-7z M224,238l7,0 0,7 -7,0 0,-7z M231,238l7,0 0,7 -7,0 0,-7z M259,238l7,0 0,7 -7,0 0,-7z M7,245l7,0 0,7 -7,0 0,-7z M14,245l7,0 0,7 -7,0 0,-7z M21,245l7,0 0,7 -7,0 0,-7z M28,245l7,0 0,7 -7,0 0,-7z M35,245l7,0 0,7 -7,0 0,-7z M42,245l7,0 0,7 -7,0 0,-7z M49,245l7,0 0,7 -7,0 0,-7z M77,245l7,0 0,7 -7,0 0,-7z M84,245l7,0 0,7 -7,0 0,-7z M98,245l7,0 0,7 -7,0 0,-7z M112,245l7,0 0,7 -7,0 0,-7z M119,245l7,0 0,7 -7,0 0,-7z M147,245l7,0 0,7 -7,0 0,-7z M161,245l7,0 0,7 -7,0 0,-7z M168,245l7,0 0,7 -7,0 0,-7z M182,245l7,0 0,7 -7,0 0,-7z M196,245l7,0 0,7 -7,0 0,-7z M203,245l7,0 0,7 -7,0 0,-7z M210,245l7,0 0,7 -7,0 0,-7z M224,245l7,0 0,7 -7,0 0,-7z M231,245l7,0 0,7 -7,0 0,-7z M245,245l7,0 0,7 -7,0 0,-7z M259,245l7,0 0,7 -7,0 0,-7z M7,252l7,0 0,7 -7,0 0,-7z M49,252l7,0 0,7 -7,0 0,-7z M77,252l7,0 0,7 -7,0 0,-7z M98,252l7,0 0,7 -7,0 0,-7z M112,252l7,0 0,7 -7,0 0,-7z M133,252l7,0 0,7 -7,0 0,-7z M140,252l7,0 0,7 -7,0 0,-7z M161,252l7,0 0,7 -7,0 0,-7z M189,252l7,0 0,7 -7,0 0,-7z M196,252l7,0 0,7 -7,0 0,-7z M210,252l7,0 0,7 -7,0 0,-7z M217,252l7,0 0,7 -7,0 0,-7z M224,252l7,0 0,7 -7,0 0,-7z M231,252l7,0 0,7 -7,0 0,-7z M259,252l7,0 0,7 -7,0 0,-7z M280,252l7,0 0,7 -7,0 0,-7z M7,259l7,0 0,7 -7,0 0,-7z M21,259l7,0 0,7 -7,0 0,-7z M28,259l7,0 0,7 -7,0 0,-7z M35,259l7,0 0,7 -7,0 0,-7z M49,259l7,0 0,7 -7,0 0,-7z M63,259l7,0 0,7 -7,0 0,-7z M70,259l7,0 0,7 -7,0 0,-7z M77,259l7,0 0,7 -7,0 0,-7z M98,259l7,0 0,7 -7,0 0,-7z M112,259l7,0 0,7 -7,0 0,-7z M126,259l7,0 0,7 -7,0 0,-7z M140,259l7,0 0,7 -7,0 0,-7z M147,259l7,0 0,7 -7,0 0,-7z M196,259l7,0 0,7 -7,0 0,-7z M203,259l7,0 0,7 -7,0 0,-7z M224,259l7,0 0,7 -7,0 0,-7z M231,259l7,0 0,7 -7,0 0,-7z M238,259l7,0 0,7 -7,0 0,-7z M245,259l7,0 0,7 -7,0 0,-7z M252,259l7,0 0,7 -7,0 0,-7z M259,259l7,0 0,7 -7,0 0,-7z M266,259l7,0 0,7 -7,0 0,-7z M7,266l7,0 0,7 -7,0 0,-7z M21,266l7,0 0,7 -7,0 0,-7z M28,266l7,0 0,7 -7,0 0,-7z M35,266l7,0 0,7 -7,0 0,-7z M49,266l7,0 0,7 -7,0 0,-7z M63,266l7,0 0,7 -7,0 0,-7z M70,266l7,0 0,7 -7,0 0,-7z M91,266l7,0 0,7 -7,0 0,-7z M105,266l7,0 0,7 -7,0 0,-7z M133,266l7,0 0,7 -7,0 0,-7z M140,266l7,0 0,7 -7,0 0,-7z M147,266l7,0 0,7 -7,0 0,-7z M168,266l7,0 0,7 -7,0 0,-7z M189,266l7,0 0,7 -7,0 0,-7z M196,266l7,0 0,7 -7,0 0,-7z M203,266l7,0 0,7 -7,0 0,-7z M210,266l7,0 0,7 -7,0 0,-7z M224,266l7,0 0,7 -7,0 0,-7z M273,266l7,0 0,7 -7,0 0,-7z M287,266l7,0 0,7 -7,0 0,-7z M7,273l7,0 0,7 -7,0 0,-7z M21,273l7,0 0,7 -7,0 0,-7z M28,273l7,0 0,7 -7,0 0,-7z M35,273l7,0 0,7 -7,0 0,-7z M49,273l7,0 0,7 -7,0 0,-7z M77,273l7,0 0,7 -7,0 0,-7z M112,273l7,0 0,7 -7,0 0,-7z M133,273l7,0 0,7 -7,0 0,-7z M140,273l7,0 0,7 -7,0 0,-7z M182,273l7,0 0,7 -7,0 0,-7z M189,273l7,0 0,7 -7,0 0,-7z M196,273l7,0 0,7 -7,0 0,-7z M210,273l7,0 0,7 -7,0 0,-7z M231,273l7,0 0,7 -7,0 0,-7z M238,273l7,0 0,7 -7,0 0,-7z M259,273l7,0 0,7 -7,0 0,-7z M287,273l7,0 0,7 -7,0 0,-7z M7,280l7,0 0,7 -7,0 0,-7z M49,280l7,0 0,7 -7,0 0,-7z M63,280l7,0 0,7 -7,0 0,-7z M70,280l7,0 0,7 -7,0 0,-7z M77,280l7,0 0,7 -7,0 0,-7z M91,280l7,0 0,7 -7,0 0,-7z M105,280l7,0 0,7 -7,0 0,-7z M119,280l7,0 0,7 -7,0 0,-7z M140,280l7,0 0,7 -7,0 0,-7z M147,280l7,0 0,7 -7,0 0,-7z M161,280l7,0 0,7 -7,0 0,-7z M175,280l7,0 0,7 -7,0 0,-7z M217,280l7,0 0,7 -7,0 0,-7z M252,280l7,0 0,7 -7,0 0,-7z M266,280l7,0 0,7 -7,0 0,-7z M273,280l7,0 0,7 -7,0 0,-7z M287,280l7,0 0,7 -7,0 0,-7z M7,287l7,0 0,7 -7,0 0,-7z M14,287l7,0 0,7 -7,0 0,-7z M21,287l7,0 0,7 -7,0 0,-7z M28,287l7,0 0,7 -7,0 0,-7z M35,287l7,0 0,7 -7,0 0,-7z M42,287l7,0 0,7 -7,0 0,-7z M49,287l7,0 0,7 -7,0 0,-7z M63,287l7,0 0,7 -7,0 0,-7z M84,287l7,0 0,7 -7,0 0,-7z M91,287l7,0 0,7 -7,0 0,-7z M98,287l7,0 0,7 -7,0 0,-7z M105,287l7,0 0,7 -7,0 0,-7z M112,287l7,0 0,7 -7,0 0,-7z M119,287l7,0 0,7 -7,0 0,-7z M126,287l7,0 0,7 -7,0 0,-7z M161,287l7,0 0,7 -7,0 0,-7z M175,287l7,0 0,7 -7,0 0,-7z M182,287l7,0 0,7 -7,0 0,-7z M189,287l7,0 0,7 -7,0 0,-7z M196,287l7,0 0,7 -7,0 0,-7z M224,287l7,0 0,7 -7,0 0,-7z M231,287l7,0 0,7 -7,0 0,-7z M266,287l7,0 0,7 -7,0 0,-7z " stroke="transparent" fill="#000000"/></svg>