<svg version="1.1" xmlns="http://www.w3.org/2000/svg" width="300px" height="300px" viewBox="0 0 301 301"  preserveAspectRatio="xMinYMin meet"><rect width="100%" height="100%" fill="#ffffff" cx="0" cy="0"/><path d="M7,7l7,0 0,7 -7,0 0,-7z M14,7l7,0 0,7 -7,0 0,-7z M21,7l7,0 0,7 -7,0 0,-7z M28,7l7,0 0,7 -7,0 0,-7z M35,7l7,0 0,7 -7,0 0,-7z M42,7l7,0 0,7 -7,0 0,-7z M49,7l7,0 0,7 -7,0 0,-7z M70,7l7,0 0,7 -7,0 0,-7z M98,7l7,0 0,7 -7,0 0,-7z M119,7l7,0 0,7 -7,0 0,-7z M126,7l7,0 0,7 -7,0 0,-7z M133,7l7,0 0,7 -7,0 0,-7z M140,7l7,0 0,7 -7,0 0,-7z M154,7l7,0 0,7 -7,0 0,-7z M161,7l7,0 0,7 -7,0 0,-7z M168,7l7,0 0,7 -7,0 0,-7z M182,7l7,0 0,7 -7,0 0,-7z M203,7l7,0 0,7 -7,0 0,-7z M210,7l7,0 0,7 -7,0 0,-7z M217,7l7,0 0,7 -7,0 0,-7z M224,7l7,0 0,7 -7,0 0,-7z M231,7l7,0 0,7 -7,0 0,-7z M245,7l7,0 0,7 -7,0 0,-7z M252,7l7,0 0,7 -7,0 0,-7z M259,7l7,0 0,7 -7,0 0,-7z M266,7l7,0 0,7 -7,0 0,-7z M273,7l7,0 0,7 -7,0 0,-7z M280,7l7,0 0,7 -7,0 0,-7z M287,7l7,0 0,7 -7,0 0,-7z M7,14l7,0 0,7 -7,0 0,-7z M49,14l7,0 0,7 -7,0 0,-7z M63,14l7,0 0,7 -7,0 0,-7z M84,14l7,0 0,7 -7,0 0,-7z M91,14l7,0 0,7 -7,0 0,-7z M98,14l7,0 0,7 -7,0 0,-7z M105,14l7,0 0,7 -7,0 0,-7z M112,14l7,0 0,7 -7,0 0,-7z M119,14l7,0 0,7 -7,0 0,-7z M126,14l7,0 0,7 -7,0 0,-7z M154,14l7,0 0,7 -7,0 0,-7z M175,14l7,0 0,7 -7,0 0,-7z M196,14l7,0 0,7 -7,0 0,-7z M210,14l7,0 0,7 -7,0 0,-7z M231,14l7,0 0,7 -7,0 0,-7z M245,14l7,0 0,7 -7,0 0,-7z M287,14l7,0 0,7 -7,0 0,-7z M7,21l7,0 0,7 -7,0 0,-7z M21,21l7,0 0,7 -7,0 0,-7z M28,21l7,0 0,7 -7,0 0,-7z M35,21l7,0 0,7 -7,0 0,-7z M49,21l7,0 0,7 -7,0 0,-7z M77,21l7,0 0,7 -7,0 0,-7z M84,21l7,0 0,7 -7,0 0,-7z M91,21l7,0 0,7 -7,0 0,-7z M98,21l7,0 0,7 -7,0 0,-7z M119,21l7,0 0,7 -7,0 0,-7z M133,21l7,0 0,7 -7,0 0,-7z M154,21l7,0 0,7 -7,0 0,-7z M161,21l7,0 0,7 -7,0 0,-7z M175,21l7,0 0,7 -7,0 0,-7z M196,21l7,0 0,7 -7,0 0,-7z M203,21l7,0 0,7 -7,0 0,-7z M231,21l7,0 0,7 -7,0 0,-7z M245,21l7,0 0,7 -7,0 0,-7z M259,21l7,0 0,7 -7,0 0,-7z M266,21l7,0 0,7 -7,0 0,-7z M273,21l7,0 0,7 -7,0 0,-7z M287,21l7,0 0,7 -7,0 0,-7z M7,28l7,0 0,7 -7,0 0,-7z M21,28l7,0 0,7 -7,0 0,-7z M28,28l7,0 0,7 -7,0 0,-7z M35,28l7,0 0,7 -7,0 0,-7z M49,28l7,0 0,7 -7,0 0,-7z M63,28l7,0 0,7 -7,0 0,-7z M70,28l7,0 0,7 -7,0 0,-7z M77,28l7,0 0,7 -7,0 0,-7z M84,28l7,0 0,7 -7,0 0,-7z M105,28l7,0 0,7 -7,0 0,-7z M112,28l7,0 0,7 -7,0 0,-7z M119,28l7,0 0,7 -7,0 0,-7z M126,28l7,0 0,7 -7,0 0,-7z M140,28l7,0 0,7 -7,0 0,-7z M161,28l7,0 0,7 -7,0 0,-7z M168,28l7,0 0,7 -7,0 0,-7z M175,28l7,0 0,7 -7,0 0,-7z M182,28l7,0 0,7 -7,0 0,-7z M210,28l7,0 0,7 -7,0 0,-7z M245,28l7,0 0,7 -7,0 0,-7z M259,28l7,0 0,7 -7,0 0,-7z M266,28l7,0 0,7 -7,0 0,-7z M273,28l7,0 0,7 -7,0 0,-7z M287,28l7,0 0,7 -7,0 0,-7z M7,35l7,0 0,7 -7,0 0,-7z M21,35l7,0 0,7 -7,0 0,-7z M28,35l7,0 0,7 -7,0 0,-7z M35,35l7,0 0,7 -7,0 0,-7z M49,35l7,0 0,7 -7,0 0,-7z M84,35l7,0 0,7 -7,0 0,-7z M91,35l7,0 0,7 -7,0 0,-7z M98,35l7,0 0,7 -7,0 0,-7z M112,35l7,0 0,7 -7,0 0,-7z M126,35l7,0 0,7 -7,0 0,-7z M133,35l7,0 0,7 -7,0 0,-7z M140,35l7,0 0,7 -7,0 0,-7z M154,35l7,0 0,7 -7,0 0,-7z M168,35l7,0 0,7 -7,0 0,-7z M203,35l7,0 0,7 -7,0 0,-7z M217,35l7,0 0,7 -7,0 0,-7z M224,35l7,0 0,7 -7,0 0,-7z M231,35l7,0 0,7 -7,0 0,-7z M245,35l7,0 0,7 -7,0 0,-7z M259,35l7,0 0,7 -7,0 0,-7z M266,35l7,0 0,7 -7,0 0,-7z M273,35l7,0 0,7 -7,0 0,-7z M287,35l7,0 0,7 -7,0 0,-7z M7,42l7,0 0,7 -7,0 0,-7z M49,42l7,0 0,7 -7,0 0,-7z M63,42l7,0 0,7 -7,0 0,-7z M70,42l7,0 0,7 -7,0 0,-7z M77,42l7,0 0,7 -7,0 0,-7z M91,42l7,0 0,7 -7,0 0,-7z M105,42l7,0 0,7 -7,0 0,-7z M112,42l7,0 0,7 -7,0 0,-7z M119,42l7,0 0,7 -7,0 0,-7z M126,42l7,0 0,7 -7,0 0,-7z M154,42l7,0 0,7 -7,0 0,-7z M161,42l7,0 0,7 -7,0 0,-7z M189,42l7,0 0,7 -7,0 0,-7z M196,42l7,0 0,7 -7,0 0,-7z M217,42l7,0 0,7 -7,0 0,-7z M231,42l7,0 0,7 -7,0 0,-7z M245,42l7,0 0,7 -7,0 0,-7z M287,42l7,0 0,7 -7,0 0,-7z M7,49l7,0 0,7 -7,0 0,-7z M14,49l7,0 0,7 -7,0 0,-7z M21,49l7,0 0,7 -7,0 0,-7z M28,49l7,0 0,7 -7,0 0,-7z M35,49l7,0 0,7 -7,0 0,-7z M42,49l7,0 0,7 -7,0 0,-7z M49,49l7,0 0,7 -7,0 0,-7z M63,49l7,0 0,7 -7,0 0,-7z M77,49l7,0 0,7 -7,0 0,-7z M91,49l7,0 0,7 -7,0 0,-7z M105,49l7,0 0,7 -7,0 0,-7z M119,49l7,0 0,7 -7,0 0,-7z M133,49l7,0 0,7 -7,0 0,-7z M147,49l7,0 0,7 -7,0 0,-7z M161,49l7,0 0,7 -7,0 0,-7z M175,49l7,0 0,7 -7,0 0,-7z M189,49l7,0 0,7 -7,0 0,-7z M203,49l7,0 0,7 -7,0 0,-7z M217,49l7,0 0,7 -7,0 0,-7z M231,49l7,0 0,7 -7,0 0,-7z M245,49l7,0 0,7 -7,0 0,-7z M252,49l7,0 0,7 -7,0 0,-7z M259,49l7,0 0,7 -7,0 0,-7z M266,49l7,0 0,7 -7,0 0,-7z M273,49l7,0 0,7 -7,0 0,-7z M280,49l7,0 0,7 -7,0 0,-7z M287,49l7,0 0,7 -7,0 0,-7z M70,56l7,0 0,7 -7,0 0,-7z M84,56l7,0 0,7 -7,0 0,-7z M91,56l7,0 0,7 -7,0 0,-7z M112,56l7,0 0,7 -7,0 0,-7z M140,56l7,0 0,7 -7,0 0,-7z M154,56l7,0 0,7 -7,0 0,-7z M161,56l7,0 0,7 -7,0 0,-7z M189,56l7,0 0,7 -7,0 0,-7z M196,56l7,0 0,7 -7,0 0,-7z M203,56l7,0 0,7 -7,0 0,-7z M224,56l7,0 0,7 -7,0 0,-7z M7,63l7,0 0,7 -7,0 0,-7z M14,63l7,0 0,7 -7,0 0,-7z M21,63l7,0 0,7 -7,0 0,-7z M28,63l7,0 0,7 -7,0 0,-7z M35,63l7,0 0,7 -7,0 0,-7z M49,63l7,0 0,7 -7,0 0,-7z M56,63l7,0 0,7 -7,0 0,-7z M63,63l7,0 0,7 -7,0 0,-7z M77,63l7,0 0,7 -7,0 0,-7z M84,63l7,0 0,7 -7,0 0,-7z M91,63l7,0 0,7 -7,0 0,-7z M98,63l7,0 0,7 -7,0 0,-7z M105,63l7,0 0,7 -7,0 0,-7z M112,63l7,0 0,7 -7,0 0,-7z M161,63l7,0 0,7 -7,0 0,-7z M168,63l7,0 0,7 -7,0 0,-7z M175,63l7,0 0,7 -7,0 0,-7z M182,63l7,0 0,7 -7,0 0,-7z M196,63l7,0 0,7 -7,0 0,-7z M210,63l7,0 0,7 -7,0 0,-7z M238,63l7,0 0,7 -7,0 0,-7z M252,63l7,0 0,7 -7,0 0,-7z M266,63l7,0 0,7 -7,0 0,-7z M280,63l7,0 0,7 -7,0 0,-7z M21,70l7,0 0,7 -7,0 0,-7z M35,70l7,0 0,7 -7,0 0,-7z M70,70l7,0 0,7 -7,0 0,-7z M77,70l7,0 0,7 -7,0 0,-7z M84,70l7,0 0,7 -7,0 0,-7z M91,70l7,0 0,7 -7,0 0,-7z M119,70l7,0 0,7 -7,0 0,-7z M126,70l7,0 0,7 -7,0 0,-7z M133,70l7,0 0,7 -7,0 0,-7z M140,70l7,0 0,7 -7,0 0,-7z M147,70l7,0 0,7 -7,0 0,-7z M168,70l7,0 0,7 -7,0 0,-7z M182,70l7,0 0,7 -7,0 0,-7z M203,70l7,0 0,7 -7,0 0,-7z M210,70l7,0 0,7 -7,0 0,-7z M224,70l7,0 0,7 -7,0 0,-7z M231,70l7,0 0,7 -7,0 0,-7z M238,70l7,0 0,7 -7,0 0,-7z M245,70l7,0 0,7 -7,0 0,-7z M252,70l7,0 0,7 -7,0 0,-7z M259,70l7,0 0,7 -7,0 0,-7z M266,70l7,0 0,7 -7,0 0,-7z M280,70l7,0 0,7 -7,0 0,-7z M287,70l7,0 0,7 -7,0 0,-7z M14,77l7,0 0,7 -7,0 0,-7z M35,77l7,0 0,7 -7,0 0,-7z M42,77l7,0 0,7 -7,0 0,-7z M49,77l7,0 0,7 -7,0 0,-7z M70,77l7,0 0,7 -7,0 0,-7z M84,77l7,0 0,7 -7,0 0,-7z M112,77l7,0 0,7 -7,0 0,-7z M133,77l7,0 0,7 -7,0 0,-7z M147,77l7,0 0,7 -7,0 0,-7z M161,77l7,0 0,7 -7,0 0,-7z M175,77l7,0 0,7 -7,0 0,-7z M189,77l7,0 0,7 -7,0 0,-7z M196,77l7,0 0,7 -7,0 0,-7z M203,77l7,0 0,7 -7,0 0,-7z M210,77l7,0 0,7 -7,0 0,-7z M231,77l7,0 0,7 -7,0 0,-7z M252,77l7,0 0,7 -7,0 0,-7z M28,84l7,0 0,7 -7,0 0,-7z M35,84l7,0 0,7 -7,0 0,-7z M42,84l7,0 0,7 -7,0 0,-7z M56,84l7,0 0,7 -7,0 0,-7z M63,84l7,0 0,7 -7,0 0,-7z M70,84l7,0 0,7 -7,0 0,-7z M77,84l7,0 0,7 -7,0 0,-7z M84,84l7,0 0,7 -7,0 0,-7z M105,84l7,0 0,7 -7,0 0,-7z M119,84l7,0 0,7 -7,0 0,-7z M140,84l7,0 0,7 -7,0 0,-7z M154,84l7,0 0,7 -7,0 0,-7z M189,84l7,0 0,7 -7,0 0,-7z M203,84l7,0 0,7 -7,0 0,-7z M217,84l7,0 0,7 -7,0 0,-7z M224,84l7,0 0,7 -7,0 0,-7z M252,84l7,0 0,7 -7,0 0,-7z M266,84l7,0 0,7 -7,0 0,-7z M7,91l7,0 0,7 -7,0 0,-7z M28,91l7,0 0,7 -7,0 0,-7z M35,91l7,0 0,7 -7,0 0,-7z M42,91l7,0 0,7 -7,0 0,-7z M49,91l7,0 0,7 -7,0 0,-7z M70,91l7,0 0,7 -7,0 0,-7z M84,91l7,0 0,7 -7,0 0,-7z M91,91l7,0 0,7 -7,0 0,-7z M126,91l7,0 0,7 -7,0 0,-7z M161,91l7,0 0,7 -7,0 0,-7z M175,91l7,0 0,7 -7,0 0,-7z M182,91l7,0 0,7 -7,0 0,-7z M189,91l7,0 0,7 -7,0 0,-7z M196,91l7,0 0,7 -7,0 0,-7z M203,91l7,0 0,7 -7,0 0,-7z M210,91l7,0 0,7 -7,0 0,-7z M266,91l7,0 0,7 -7,0 0,-7z M273,91l7,0 0,7 -7,0 0,-7z M287,91l7,0 0,7 -7,0 0,-7z M21,98l7,0 0,7 -7,0 0,-7z M42,98l7,0 0,7 -7,0 0,-7z M63,98l7,0 0,7 -7,0 0,-7z M77,98l7,0 0,7 -7,0 0,-7z M105,98l7,0 0,7 -7,0 0,-7z M112,98l7,0 0,7 -7,0 0,-7z M119,98l7,0 0,7 -7,0 0,-7z M140,98l7,0 0,7 -7,0 0,-7z M147,98l7,0 0,7 -7,0 0,-7z M154,98l7,0 0,7 -7,0 0,-7z M168,98l7,0 0,7 -7,0 0,-7z M175,98l7,0 0,7 -7,0 0,-7z M182,98l7,0 0,7 -7,0 0,-7z M189,98l7,0 0,7 -7,0 0,-7z M203,98l7,0 0,7 -7,0 0,-7z M224,98l7,0 0,7 -7,0 0,-7z M231,98l7,0 0,7 -7,0 0,-7z M245,98l7,0 0,7 -7,0 0,-7z M252,98l7,0 0,7 -7,0 0,-7z M259,98l7,0 0,7 -7,0 0,-7z M287,98l7,0 0,7 -7,0 0,-7z M7,105l7,0 0,7 -7,0 0,-7z M14,105l7,0 0,7 -7,0 0,-7z M28,105l7,0 0,7 -7,0 0,-7z M42,105l7,0 0,7 -7,0 0,-7z M49,105l7,0 0,7 -7,0 0,-7z M77,105l7,0 0,7 -7,0 0,-7z M84,105l7,0 0,7 -7,0 0,-7z M91,105l7,0 0,7 -7,0 0,-7z M105,105l7,0 0,7 -7,0 0,-7z M147,105l7,0 0,7 -7,0 0,-7z M182,105l7,0 0,7 -7,0 0,-7z M189,105l7,0 0,7 -7,0 0,-7z M196,105l7,0 0,7 -7,0 0,-7z M203,105l7,0 0,7 -7,0 0,-7z M210,105l7,0 0,7 -7,0 0,-7z M217,105l7,0 0,7 -7,0 0,-7z M231,105l7,0 0,7 -7,0 0,-7z M245,105l7,0 0,7 -7,0 0,-7z M266,105l7,0 0,7 -7,0 0,-7z M7,112l7,0 0,7 -7,0 0,-7z M14,112l7,0 0,7 -7,0 0,-7z M28,112l7,0 0,7 -7,0 0,-7z M35,112l7,0 0,7 -7,0 0,-7z M42,112l7,0 0,7 -7,0 0,-7z M56,112l7,0 0,7 -7,0 0,-7z M63,112l7,0 0,7 -7,0 0,-7z M84,112l7,0 0,7 -7,0 0,-7z M105,112l7,0 0,7 -7,0 0,-7z M119,112l7,0 0,7 -7,0 0,-7z M133,112l7,0 0,7 -7,0 0,-7z M147,112l7,0 0,7 -7,0 0,-7z M154,112l7,0 0,7 -7,0 0,-7z M168,112l7,0 0,7 -7,0 0,-7z M196,112l7,0 0,7 -7,0 0,-7z M217,112l7,0 0,7 -7,0 0,-7z M231,112l7,0 0,7 -7,0 0,-7z M238,112l7,0 0,7 -7,0 0,-7z M252,112l7,0 0,7 -7,0 0,-7z M259,112l7,0 0,7 -7,0 0,-7z M266,112l7,0 0,7 -7,0 0,-7z M280,112l7,0 0,7 -7,0 0,-7z M28,119l7,0 0,7 -7,0 0,-7z M49,119l7,0 0,7 -7,0 0,-7z M56,119l7,0 0,7 -7,0 0,-7z M77,119l7,0 0,7 -7,0 0,-7z M84,119l7,0 0,7 -7,0 0,-7z M91,119l7,0 0,7 -7,0 0,-7z M105,119l7,0 0,7 -7,0 0,-7z M126,119l7,0 0,7 -7,0 0,-7z M168,119l7,0 0,7 -7,0 0,-7z M182,119l7,0 0,7 -7,0 0,-7z M189,119l7,0 0,7 -7,0 0,-7z M210,119l7,0 0,7 -7,0 0,-7z M224,119l7,0 0,7 -7,0 0,-7z M231,119l7,0 0,7 -7,0 0,-7z M266,119l7,0 0,7 -7,0 0,-7z M273,119l7,0 0,7 -7,0 0,-7z M7,126l7,0 0,7 -7,0 0,-7z M21,126l7,0 0,7 -7,0 0,-7z M28,126l7,0 0,7 -7,0 0,-7z M56,126l7,0 0,7 -7,0 0,-7z M70,126l7,0 0,7 -7,0 0,-7z M84,126l7,0 0,7 -7,0 0,-7z M98,126l7,0 0,7 -7,0 0,-7z M105,126l7,0 0,7 -7,0 0,-7z M119,126l7,0 0,7 -7,0 0,-7z M133,126l7,0 0,7 -7,0 0,-7z M140,126l7,0 0,7 -7,0 0,-7z M147,126l7,0 0,7 -7,0 0,-7z M154,126l7,0 0,7 -7,0 0,-7z M168,126l7,0 0,7 -7,0 0,-7z M203,126l7,0 0,7 -7,0 0,-7z M217,126l7,0 0,7 -7,0 0,-7z M224,126l7,0 0,7 -7,0 0,-7z M231,126l7,0 0,7 -7,0 0,-7z M238,126l7,0 0,7 -7,0 0,-7z M245,126l7,0 0,7 -7,0 0,-7z M252,126l7,0 0,7 -7,0 0,-7z M259,126l7,0 0,7 -7,0 0,-7z M280,126l7,0 0,7 -7,0 0,-7z M287,126l7,0 0,7 -7,0 0,-7z M7,133l7,0 0,7 -7,0 0,-7z M49,133l7,0 0,7 -7,0 0,-7z M56,133l7,0 0,7 -7,0 0,-7z M63,133l7,0 0,7 -7,0 0,-7z M77,133l7,0 0,7 -7,0 0,-7z M91,133l7,0 0,7 -7,0 0,-7z M98,133l7,0 0,7 -7,0 0,-7z M105,133l7,0 0,7 -7,0 0,-7z M112,133l7,0 0,7 -7,0 0,-7z M119,133l7,0 0,7 -7,0 0,-7z M133,133l7,0 0,7 -7,0 0,-7z M154,133l7,0 0,7 -7,0 0,-7z M161,133l7,0 0,7 -7,0 0,-7z M182,133l7,0 0,7 -7,0 0,-7z M196,133l7,0 0,7 -7,0 0,-7z M203,133l7,0 0,7 -7,0 0,-7z M231,133l7,0 0,7 -7,0 0,-7z M238,133l7,0 0,7 -7,0 0,-7z M252,133l7,0 0,7 -7,0 0,-7z M14,140l7,0 0,7 -7,0 0,-7z M21,140l7,0 0,7 -7,0 0,-7z M35,140l7,0 0,7 -7,0 0,-7z M42,140l7,0 0,7 -7,0 0,-7z M63,140l7,0 0,7 -7,0 0,-7z M98,140l7,0 0,7 -7,0 0,-7z M112,140l7,0 0,7 -7,0 0,-7z M133,140l7,0 0,7 -7,0 0,-7z M140,140l7,0 0,7 -7,0 0,-7z M147,140l7,0 0,7 -7,0 0,-7z M154,140l7,0 0,7 -7,0 0,-7z M175,140l7,0 0,7 -7,0 0,-7z M203,140l7,0 0,7 -7,0 0,-7z M217,140l7,0 0,7 -7,0 0,-7z M231,140l7,0 0,7 -7,0 0,-7z M238,140l7,0 0,7 -7,0 0,-7z M245,140l7,0 0,7 -7,0 0,-7z M259,140l7,0 0,7 -7,0 0,-7z M266,140l7,0 0,7 -7,0 0,-7z M287,140l7,0 0,7 -7,0 0,-7z M7,147l7,0 0,7 -7,0 0,-7z M49,147l7,0 0,7 -7,0 0,-7z M56,147l7,0 0,7 -7,0 0,-7z M70,147l7,0 0,7 -7,0 0,-7z M84,147l7,0 0,7 -7,0 0,-7z M105,147l7,0 0,7 -7,0 0,-7z M112,147l7,0 0,7 -7,0 0,-7z M119,147l7,0 0,7 -7,0 0,-7z M126,147l7,0 0,7 -7,0 0,-7z M140,147l7,0 0,7 -7,0 0,-7z M147,147l7,0 0,7 -7,0 0,-7z M168,147l7,0 0,7 -7,0 0,-7z M175,147l7,0 0,7 -7,0 0,-7z M182,147l7,0 0,7 -7,0 0,-7z M189,147l7,0 0,7 -7,0 0,-7z M210,147l7,0 0,7 -7,0 0,-7z M252,147l7,0 0,7 -7,0 0,-7z M266,147l7,0 0,7 -7,0 0,-7z M273,147l7,0 0,7 -7,0 0,-7z M287,147l7,0 0,7 -7,0 0,-7z M7,154l7,0 0,7 -7,0 0,-7z M14,154l7,0 0,7 -7,0 0,-7z M21,154l7,0 0,7 -7,0 0,-7z M35,154l7,0 0,7 -7,0 0,-7z M42,154l7,0 0,7 -7,0 0,-7z M91,154l7,0 0,7 -7,0 0,-7z M112,154l7,0 0,7 -7,0 0,-7z M140,154l7,0 0,7 -7,0 0,-7z M147,154l7,0 0,7 -7,0 0,-7z M168,154l7,0 0,7 -7,0 0,-7z M189,154l7,0 0,7 -7,0 0,-7z M203,154l7,0 0,7 -7,0 0,-7z M224,154l7,0 0,7 -7,0 0,-7z M245,154l7,0 0,7 -7,0 0,-7z M252,154l7,0 0,7 -7,0 0,-7z M259,154l7,0 0,7 -7,0 0,-7z M287,154l7,0 0,7 -7,0 0,-7z M28,161l7,0 0,7 -7,0 0,-7z M42,161l7,0 0,7 -7,0 0,-7z M49,161l7,0 0,7 -7,0 0,-7z M70,161l7,0 0,7 -7,0 0,-7z M77,161l7,0 0,7 -7,0 0,-7z M98,161l7,0 0,7 -7,0 0,-7z M105,161l7,0 0,7 -7,0 0,-7z M112,161l7,0 0,7 -7,0 0,-7z M119,161l7,0 0,7 -7,0 0,-7z M133,161l7,0 0,7 -7,0 0,-7z M161,161l7,0 0,7 -7,0 0,-7z M182,161l7,0 0,7 -7,0 0,-7z M196,161l7,0 0,7 -7,0 0,-7z M203,161l7,0 0,7 -7,0 0,-7z M210,161l7,0 0,7 -7,0 0,-7z M217,161l7,0 0,7 -7,0 0,-7z M238,161l7,0 0,7 -7,0 0,-7z M252,161l7,0 0,7 -7,0 0,-7z M266,161l7,0 0,7 -7,0 0,-7z M273,161l7,0 0,7 -7,0 0,-7z M14,168l7,0 0,7 -7,0 0,-7z M28,168l7,0 0,7 -7,0 0,-7z M56,168l7,0 0,7 -7,0 0,-7z M77,168l7,0 0,7 -7,0 0,-7z M91,168l7,0 0,7 -7,0 0,-7z M112,168l7,0 0,7 -7,0 0,-7z M154,168l7,0 0,7 -7,0 0,-7z M161,168l7,0 0,7 -7,0 0,-7z M175,168l7,0 0,7 -7,0 0,-7z M189,168l7,0 0,7 -7,0 0,-7z M203,168l7,0 0,7 -7,0 0,-7z M224,168l7,0 0,7 -7,0 0,-7z M231,168l7,0 0,7 -7,0 0,-7z M252,168l7,0 0,7 -7,0 0,-7z M266,168l7,0 0,7 -7,0 0,-7z M280,168l7,0 0,7 -7,0 0,-7z M7,175l7,0 0,7 -7,0 0,-7z M21,175l7,0 0,7 -7,0 0,-7z M28,175l7,0 0,7 -7,0 0,-7z M42,175l7,0 0,7 -7,0 0,-7z M49,175l7,0 0,7 -7,0 0,-7z M56,175l7,0 0,7 -7,0 0,-7z M77,175l7,0 0,7 -7,0 0,-7z M91,175l7,0 0,7 -7,0 0,-7z M98,175l7,0 0,7 -7,0 0,-7z M105,175l7,0 0,7 -7,0 0,-7z M112,175l7,0 0,7 -7,0 0,-7z M126,175l7,0 0,7 -7,0 0,-7z M140,175l7,0 0,7 -7,0 0,-7z M161,175l7,0 0,7 -7,0 0,-7z M168,175l7,0 0,7 -7,0 0,-7z M175,175l7,0 0,7 -7,0 0,-7z M182,175l7,0 0,7 -7,0 0,-7z M189,175l7,0 0,7 -7,0 0,-7z M196,175l7,0 0,7 -7,0 0,-7z M210,175l7,0 0,7 -7,0 0,-7z M224,175l7,0 0,7 -7,0 0,-7z M266,175l7,0 0,7 -7,0 0,-7z M273,175l7,0 0,7 -7,0 0,-7z M280,175l7,0 0,7 -7,0 0,-7z M287,175l7,0 0,7 -7,0 0,-7z M21,182l7,0 0,7 -7,0 0,-7z M28,182l7,0 0,7 -7,0 0,-7z M35,182l7,0 0,7 -7,0 0,-7z M42,182l7,0 0,7 -7,0 0,-7z M63,182l7,0 0,7 -7,0 0,-7z M84,182l7,0 0,7 -7,0 0,-7z M119,182l7,0 0,7 -7,0 0,-7z M126,182l7,0 0,7 -7,0 0,-7z M140,182l7,0 0,7 -7,0 0,-7z M147,182l7,0 0,7 -7,0 0,-7z M168,182l7,0 0,7 -7,0 0,-7z M203,182l7,0 0,7 -7,0 0,-7z M217,182l7,0 0,7 -7,0 0,-7z M224,182l7,0 0,7 -7,0 0,-7z M231,182l7,0 0,7 -7,0 0,-7z M238,182l7,0 0,7 -7,0 0,-7z M245,182l7,0 0,7 -7,0 0,-7z M252,182l7,0 0,7 -7,0 0,-7z M259,182l7,0 0,7 -7,0 0,-7z M280,182l7,0 0,7 -7,0 0,-7z M287,182l7,0 0,7 -7,0 0,-7z M14,189l7,0 0,7 -7,0 0,-7z M21,189l7,0 0,7 -7,0 0,-7z M28,189l7,0 0,7 -7,0 0,-7z M49,189l7,0 0,7 -7,0 0,-7z M56,189l7,0 0,7 -7,0 0,-7z M77,189l7,0 0,7 -7,0 0,-7z M91,189l7,0 0,7 -7,0 0,-7z M112,189l7,0 0,7 -7,0 0,-7z M133,189l7,0 0,7 -7,0 0,-7z M147,189l7,0 0,7 -7,0 0,-7z M154,189l7,0 0,7 -7,0 0,-7z M161,189l7,0 0,7 -7,0 0,-7z M182,189l7,0 0,7 -7,0 0,-7z M196,189l7,0 0,7 -7,0 0,-7z M203,189l7,0 0,7 -7,0 0,-7z M210,189l7,0 0,7 -7,0 0,-7z M217,189l7,0 0,7 -7,0 0,-7z M238,189l7,0 0,7 -7,0 0,-7z M252,189l7,0 0,7 -7,0 0,-7z M266,189l7,0 0,7 -7,0 0,-7z M273,189l7,0 0,7 -7,0 0,-7z M280,189l7,0 0,7 -7,0 0,-7z M7,196l7,0 0,7 -7,0 0,-7z M42,196l7,0 0,7 -7,0 0,-7z M84,196l7,0 0,7 -7,0 0,-7z M91,196l7,0 0,7 -7,0 0,-7z M105,196l7,0 0,7 -7,0 0,-7z M147,196l7,0 0,7 -7,0 0,-7z M154,196l7,0 0,7 -7,0 0,-7z M161,196l7,0 0,7 -7,0 0,-7z M168,196l7,0 0,7 -7,0 0,-7z M189,196l7,0 0,7 -7,0 0,-7z M203,196l7,0 0,7 -7,0 0,-7z M217,196l7,0 0,7 -7,0 0,-7z M224,196l7,0 0,7 -7,0 0,-7z M245,196l7,0 0,7 -7,0 0,-7z M252,196l7,0 0,7 -7,0 0,-7z M280,196l7,0 0,7 -7,0 0,-7z M287,196l7,0 0,7 -7,0 0,-7z M28,203l7,0 0,7 -7,0 0,-7z M49,203l7,0 0,7 -7,0 0,-7z M56,203l7,0 0,7 -7,0 0,-7z M70,203l7,0 0,7 -7,0 0,-7z M91,203l7,0 0,7 -7,0 0,-7z M112,203l7,0 0,7 -7,0 0,-7z M126,203l7,0 0,7 -7,0 0,-7z M161,203l7,0 0,7 -7,0 0,-7z M175,203l7,0 0,7 -7,0 0,-7z M182,203l7,0 0,7 -7,0 0,-7z M189,203l7,0 0,7 -7,0 0,-7z M203,203l7,0 0,7 -7,0 0,-7z M210,203l7,0 0,7 -7,0 0,-7z M266,203l7,0 0,7 -7,0 0,-7z M273,203l7,0 0,7 -7,0 0,-7z M280,203l7,0 0,7 -7,0 0,-7z M7,210l7,0 0,7 -7,0 0,-7z M14,210l7,0 0,7 -7,0 0,-7z M21,210l7,0 0,7 -7,0 0,-7z M28,210l7,0 0,7 -7,0 0,-7z M70,210l7,0 0,7 -7,0 0,-7z M98,210l7,0 0,7 -7,0 0,-7z M105,210l7,0 0,7 -7,0 0,-7z M112,210l7,0 0,7 -7,0 0,-7z M119,210l7,0 0,7 -7,0 0,-7z M133,210l7,0 0,7 -7,0 0,-7z M140,210l7,0 0,7 -7,0 0,-7z M147,210l7,0 0,7 -7,0 0,-7z M168,210l7,0 0,7 -7,0 0,-7z M182,210l7,0 0,7 -7,0 0,-7z M189,210l7,0 0,7 -7,0 0,-7z M203,210l7,0 0,7 -7,0 0,-7z M210,210l7,0 0,7 -7,0 0,-7z M217,210l7,0 0,7 -7,0 0,-7z M224,210l7,0 0,7 -7,0 0,-7z M231,210l7,0 0,7 -7,0 0,-7z M238,210l7,0 0,7 -7,0 0,-7z M245,210l7,0 0,7 -7,0 0,-7z M259,210l7,0 0,7 -7,0 0,-7z M266,210l7,0 0,7 -7,0 0,-7z M280,210l7,0 0,7 -7,0 0,-7z M287,210l7,0 0,7 -7,0 0,-7z M7,217l7,0 0,7 -7,0 0,-7z M28,217l7,0 0,7 -7,0 0,-7z M42,217l7,0 0,7 -7,0 0,-7z M49,217l7,0 0,7 -7,0 0,-7z M56,217l7,0 0,7 -7,0 0,-7z M84,217l7,0 0,7 -7,0 0,-7z M91,217l7,0 0,7 -7,0 0,-7z M175,217l7,0 0,7 -7,0 0,-7z M182,217l7,0 0,7 -7,0 0,-7z M189,217l7,0 0,7 -7,0 0,-7z M196,217l7,0 0,7 -7,0 0,-7z M203,217l7,0 0,7 -7,0 0,-7z M217,217l7,0 0,7 -7,0 0,-7z M231,217l7,0 0,7 -7,0 0,-7z M238,217l7,0 0,7 -7,0 0,-7z M7,224l7,0 0,7 -7,0 0,-7z M21,224l7,0 0,7 -7,0 0,-7z M28,224l7,0 0,7 -7,0 0,-7z M35,224l7,0 0,7 -7,0 0,-7z M42,224l7,0 0,7 -7,0 0,-7z M56,224l7,0 0,7 -7,0 0,-7z M63,224l7,0 0,7 -7,0 0,-7z M70,224l7,0 0,7 -7,0 0,-7z M77,224l7,0 0,7 -7,0 0,-7z M84,224l7,0 0,7 -7,0 0,-7z M105,224l7,0 0,7 -7,0 0,-7z M119,224l7,0 0,7 -7,0 0,-7z M133,224l7,0 0,7 -7,0 0,-7z M147,224l7,0 0,7 -7,0 0,-7z M154,224l7,0 0,7 -7,0 0,-7z M189,224l7,0 0,7 -7,0 0,-7z M196,224l7,0 0,7 -7,0 0,-7z M203,224l7,0 0,7 -7,0 0,-7z M217,224l7,0 0,7 -7,0 0,-7z M224,224l7,0 0,7 -7,0 0,-7z M231,224l7,0 0,7 -7,0 0,-7z M238,224l7,0 0,7 -7,0 0,-7z M245,224l7,0 0,7 -7,0 0,-7z M259,224l7,0 0,7 -7,0 0,-7z M266,224l7,0 0,7 -7,0 0,-7z M7,231l7,0 0,7 -7,0 0,-7z M28,231l7,0 0,7 -7,0 0,-7z M49,231l7,0 0,7 -7,0 0,-7z M56,231l7,0 0,7 -7,0 0,-7z M63,231l7,0 0,7 -7,0 0,-7z M77,231l7,0 0,7 -7,0 0,-7z M84,231l7,0 0,7 -7,0 0,-7z M91,231l7,0 0,7 -7,0 0,-7z M98,231l7,0 0,7 -7,0 0,-7z M105,231l7,0 0,7 -7,0 0,-7z M119,231l7,0 0,7 -7,0 0,-7z M126,231l7,0 0,7 -7,0 0,-7z M161,231l7,0 0,7 -7,0 0,-7z M175,231l7,0 0,7 -7,0 0,-7z M182,231l7,0 0,7 -7,0 0,-7z M189,231l7,0 0,7 -7,0 0,-7z M210,231l7,0 0,7 -7,0 0,-7z M217,231l7,0 0,7 -7,0 0,-7z M224,231l7,0 0,7 -7,0 0,-7z M231,231l7,0 0,7 -7,0 0,-7z M238,231l7,0 0,7 -7,0 0,-7z M245,231l7,0 0,7 -7,0 0,-7z M252,231l7,0 0,7 -7,0 0,-7z M259,231l7,0 0,7 -7,0 0,-7z M273,231l7,0 0,7 -7,0 0,-7z M280,231l7,0 0,7 -7,0 0,-7z M287,231l7,0 0,7 -7,0 0,-7z M63,238l7,0 0,7 -7,0 0,-7z M70,238l7,0 0,7 -7,0 0,-7z M84,238l7,0 0,7 -7,0 0,-7z M98,238l7,0 0,7 -7,0 0,-7z M105,238l7,0 0,7 -7,0 0,-7z M119,238l7,0 0,7 -7,0 0,-7z M126,238l7,0 0,7 -7,0 0,-7z M133,238l7,0 0,7 -7,0 0,-7z M140,238l7,0 0,7 -7,0 0,-7z M147,238l7,0 0,7 -7,0 0,-7z M154,238l7,0 0,7 -7,0 0,-7z M168,238l7,0 0,7 -7,0 0,-7z M203,238l7,0 0,7 -7,0 0,-7z M210,238l7,0 0,7 -7,0 0,-7z M217,238l7,0 0,7 -7,0 0,-7z M224,238l7,0 0,7 -7,0 0,-7z M231,238l7,0 0,7 -7,0 0,-7z M259,238l7,0 0,7 -7,0 0,-7z M273,238l7,0 0,7 -7,0 0,-7z M280,238l7,0 0,7 -7,0 0,-7z M287,238l7,0 0,7 -7,0 0,-7z M7,245l7,0 0,7 -7,0 0,-7z M14,245l7,0 0,7 -7,0 0,-7z M21,245l7,0 0,7 -7,0 0,-7z M28,245l7,0 0,7 -7,0 0,-7z M35,245l7,0 0,7 -7,0 0,-7z M42,245l7,0 0,7 -7,0 0,-7z M49,245l7,0 0,7 -7,0 0,-7z M63,245l7,0 0,7 -7,0 0,-7z M70,245l7,0 0,7 -7,0 0,-7z M77,245l7,0 0,7 -7,0 0,-7z M98,245l7,0 0,7 -7,0 0,-7z M105,245l7,0 0,7 -7,0 0,-7z M112,245l7,0 0,7 -7,0 0,-7z M119,245l7,0 0,7 -7,0 0,-7z M126,245l7,0 0,7 -7,0 0,-7z M161,245l7,0 0,7 -7,0 0,-7z M189,245l7,0 0,7 -7,0 0,-7z M196,245l7,0 0,7 -7,0 0,-7z M203,245l7,0 0,7 -7,0 0,-7z M210,245l7,0 0,7 -7,0 0,-7z M224,245l7,0 0,7 -7,0 0,-7z M231,245l7,0 0,7 -7,0 0,-7z M245,245l7,0 0,7 -7,0 0,-7z M259,245l7,0 0,7 -7,0 0,-7z M273,245l7,0 0,7 -7,0 0,-7z M7,252l7,0 0,7 -7,0 0,-7z M49,252l7,0 0,7 -7,0 0,-7z M77,252l7,0 0,7 -7,0 0,-7z M84,252l7,0 0,7 -7,0 0,-7z M98,252l7,0 0,7 -7,0 0,-7z M119,252l7,0 0,7 -7,0 0,-7z M133,252l7,0 0,7 -7,0 0,-7z M140,252l7,0 0,7 -7,0 0,-7z M154,252l7,0 0,7 -7,0 0,-7z M161,252l7,0 0,7 -7,0 0,-7z M168,252l7,0 0,7 -7,0 0,-7z M203,252l7,0 0,7 -7,0 0,-7z M224,252l7,0 0,7 -7,0 0,-7z M231,252l7,0 0,7 -7,0 0,-7z M259,252l7,0 0,7 -7,0 0,-7z M287,252l7,0 0,7 -7,0 0,-7z M7,259l7,0 0,7 -7,0 0,-7z M21,259l7,0 0,7 -7,0 0,-7z M28,259l7,0 0,7 -7,0 0,-7z M35,259l7,0 0,7 -7,0 0,-7z M49,259l7,0 0,7 -7,0 0,-7z M63,259l7,0 0,7 -7,0 0,-7z M70,259l7,0 0,7 -7,0 0,-7z M84,259l7,0 0,7 -7,0 0,-7z M105,259l7,0 0,7 -7,0 0,-7z M112,259l7,0 0,7 -7,0 0,-7z M126,259l7,0 0,7 -7,0 0,-7z M147,259l7,0 0,7 -7,0 0,-7z M161,259l7,0 0,7 -7,0 0,-7z M168,259l7,0 0,7 -7,0 0,-7z M175,259l7,0 0,7 -7,0 0,-7z M182,259l7,0 0,7 -7,0 0,-7z M189,259l7,0 0,7 -7,0 0,-7z M196,259l7,0 0,7 -7,0 0,-7z M210,259l7,0 0,7 -7,0 0,-7z M231,259l7,0 0,7 -7,0 0,-7z M238,259l7,0 0,7 -7,0 0,-7z M245,259l7,0 0,7 -7,0 0,-7z M252,259l7,0 0,7 -7,0 0,-7z M259,259l7,0 0,7 -7,0 0,-7z M273,259l7,0 0,7 -7,0 0,-7z M287,259l7,0 0,7 -7,0 0,-7z M7,266l7,0 0,7 -7,0 0,-7z M21,266l7,0 0,7 -7,0 0,-7z M28,266l7,0 0,7 -7,0 0,-7z M35,266l7,0 0,7 -7,0 0,-7z M49,266l7,0 0,7 -7,0 0,-7z M63,266l7,0 0,7 -7,0 0,-7z M77,266l7,0 0,7 -7,0 0,-7z M91,266l7,0 0,7 -7,0 0,-7z M98,266l7,0 0,7 -7,0 0,-7z M112,266l7,0 0,7 -7,0 0,-7z M133,266l7,0 0,7 -7,0 0,-7z M140,266l7,0 0,7 -7,0 0,-7z M147,266l7,0 0,7 -7,0 0,-7z M154,266l7,0 0,7 -7,0 0,-7z M168,266l7,0 0,7 -7,0 0,-7z M182,266l7,0 0,7 -7,0 0,-7z M189,266l7,0 0,7 -7,0 0,-7z M210,266l7,0 0,7 -7,0 0,-7z M217,266l7,0 0,7 -7,0 0,-7z M231,266l7,0 0,7 -7,0 0,-7z M238,266l7,0 0,7 -7,0 0,-7z M266,266l7,0 0,7 -7,0 0,-7z M287,266l7,0 0,7 -7,0 0,-7z M7,273l7,0 0,7 -7,0 0,-7z M21,273l7,0 0,7 -7,0 0,-7z M28,273l7,0 0,7 -7,0 0,-7z M35,273l7,0 0,7 -7,0 0,-7z M49,273l7,0 0,7 -7,0 0,-7z M63,273l7,0 0,7 -7,0 0,-7z M77,273l7,0 0,7 -7,0 0,-7z M98,273l7,0 0,7 -7,0 0,-7z M112,273l7,0 0,7 -7,0 0,-7z M133,273l7,0 0,7 -7,0 0,-7z M147,273l7,0 0,7 -7,0 0,-7z M161,273l7,0 0,7 -7,0 0,-7z M189,273l7,0 0,7 -7,0 0,-7z M196,273l7,0 0,7 -7,0 0,-7z M210,273l7,0 0,7 -7,0 0,-7z M224,273l7,0 0,7 -7,0 0,-7z M231,273l7,0 0,7 -7,0 0,-7z M238,273l7,0 0,7 -7,0 0,-7z M245,273l7,0 0,7 -7,0 0,-7z M259,273l7,0 0,7 -7,0 0,-7z M266,273l7,0 0,7 -7,0 0,-7z M7,280l7,0 0,7 -7,0 0,-7z M49,280l7,0 0,7 -7,0 0,-7z M63,280l7,0 0,7 -7,0 0,-7z M70,280l7,0 0,7 -7,0 0,-7z M91,280l7,0 0,7 -7,0 0,-7z M154,280l7,0 0,7 -7,0 0,-7z M189,280l7,0 0,7 -7,0 0,-7z M196,280l7,0 0,7 -7,0 0,-7z M203,280l7,0 0,7 -7,0 0,-7z M217,280l7,0 0,7 -7,0 0,-7z M231,280l7,0 0,7 -7,0 0,-7z M238,280l7,0 0,7 -7,0 0,-7z M245,280l7,0 0,7 -7,0 0,-7z M252,280l7,0 0,7 -7,0 0,-7z M266,280l7,0 0,7 -7,0 0,-7z M280,280l7,0 0,7 -7,0 0,-7z M7,287l7,0 0,7 -7,0 0,-7z M14,287l7,0 0,7 -7,0 0,-7z M21,287l7,0 0,7 -7,0 0,-7z M28,287l7,0 0,7 -7,0 0,-7z M35,287l7,0 0,7 -7,0 0,-7z M42,287l7,0 0,7 -7,0 0,-7z M49,287l7,0 0,7 -7,0 0,-7z M63,287l7,0 0,7 -7,0 0,-7z M91,287l7,0 0,7 -7,0 0,-7z M98,287l7,0 0,7 -7,0 0,-7z M112,287l7,0 0,7 -7,0 0,-7z M119,287l7,0 0,7 -7,0 0,-7z M140,287l7,0 0,7 -7,0 0,-7z M147,287l7,0 0,7 -7,0 0,-7z M161,287l7,0 0,7 -7,0 0,-7z M175,287l7,0 0,7 -7,0 0,-7z M182,287l7,0 0,7 -7,0 0,-7z M210,287l7,0 0,7 -7,0 0,-7z M224,287l7,0 0,7 -7,0 0,-7z M252,287l7,0 0,7 -7,0 0,-7z M266,287l7,0 0,7 -7,0 0,-7z M273,287l7,0 0,7 -7,0 0,-7z " stroke="transparent" fill="#000000"/></svg>